<svg width="283" height="65" viewBox="0 0 283 65" fill="none" xmlns="http://www.w3.org/2000/svg">
<mask id="path-1-outside-1_36_212" maskUnits="userSpaceOnUse" x="9" y="17" width="274" height="38" fill="black">
<rect fill="white" x="9" y="17" width="274" height="38"/>
<path d="M32.56 43.84C31.8933 44.16 31.2 44.48 30.48 44.8C29.7867 45.0933 29.04 45.36 28.24 45.6C27.44 45.8133 26.56 45.9867 25.6 46.12C24.6667 46.2533 23.64 46.32 22.52 46.32C18.9467 46.32 16.1867 45.52 14.24 43.92C12.32 42.32 11.36 39.6533 11.36 35.92C11.36 33.76 11.6933 31.7333 12.36 29.84C13.0267 27.92 14.0133 26.2533 15.32 24.84C16.6267 23.4 18.24 22.2667 20.16 21.44C22.08 20.6133 24.28 20.2 26.76 20.2C27.9333 20.2 29 20.28 29.96 20.44C30.9467 20.6 31.8267 20.8133 32.6 21.08C33.4 21.32 34.1067 21.5867 34.72 21.88C35.36 22.1733 35.9333 22.4533 36.44 22.72L35 30.16H27.8C27.8267 29.8933 27.8533 29.5467 27.88 29.12C27.9333 28.6933 27.9733 28.2667 28 27.84C28.0267 27.3867 28.0533 26.9467 28.08 26.52C28.1067 26.0933 28.12 25.7333 28.12 25.44C28.12 25.2267 28.1067 24.9867 28.08 24.72C28.0533 24.4267 27.9867 24.1467 27.88 23.88C27.7733 23.6133 27.6 23.4 27.36 23.24C27.1467 23.0533 26.8533 22.96 26.48 22.96C25.7867 22.96 25.1467 23.2533 24.56 23.84C24 24.4 23.4933 25.16 23.04 26.12C22.5867 27.0533 22.1867 28.12 21.84 29.32C21.4933 30.52 21.2 31.7467 20.96 33C20.7467 34.2267 20.5733 35.44 20.44 36.64C20.3333 37.84 20.28 38.8933 20.28 39.8C20.28 40.0667 20.2933 40.4 20.32 40.8C20.3467 41.2 20.4267 41.5867 20.56 41.96C20.6933 42.3333 20.8933 42.6533 21.16 42.92C21.4533 43.1867 21.84 43.32 22.32 43.32C23.1467 43.32 23.9467 42.8133 24.72 41.8C25.4933 40.76 26.1733 38.92 26.76 36.28H34.16L32.56 43.84ZM45.5869 28.8L46.7869 40.56L53.1069 28.8H57.3469L47.7069 46C46.7469 47.68 45.7735 48.9733 44.7869 49.88C43.8002 50.7867 42.7202 51.4533 41.5469 51.88C40.4002 52.3067 39.1202 52.5467 37.7069 52.6C36.3202 52.68 34.7335 52.72 32.9469 52.72L33.5469 49.96C34.4269 49.96 35.2402 49.9467 35.9869 49.92C36.7602 49.8933 37.3735 49.8133 37.8269 49.68C38.4402 49.52 38.8802 49.2267 39.1469 48.8C39.4135 48.4 39.5469 47.8 39.5469 47C39.5469 46.4667 39.4935 45.8533 39.3869 45.16C39.3069 44.4667 39.2135 43.7333 39.1069 42.96L37.1469 28.8H45.5869ZM66.0909 36.08L75.4109 28.8H80.6909L72.7309 35.32L78.6909 46H69.7309L65.6509 37.96L63.9709 46H55.8109L61.4909 19.12H69.6909L66.0909 36.08ZM87.7825 37.96C87.6758 38.5467 87.5958 39.1067 87.5425 39.64C87.5158 40.1733 87.5025 40.6533 87.5025 41.08C87.5025 41.32 87.5158 41.5867 87.5425 41.88C87.5692 42.1733 87.6225 42.4533 87.7025 42.72C87.8092 42.96 87.9425 43.1733 88.1025 43.36C88.2892 43.52 88.5425 43.6 88.8625 43.6C89.1025 43.6 89.3692 43.52 89.6625 43.36C89.9825 43.2 90.2892 42.9733 90.5825 42.68C90.9025 42.3867 91.1958 42.0267 91.4625 41.6C91.7558 41.1733 91.9825 40.6933 92.1425 40.16H98.7025L97.6625 44.44C97.1292 44.7867 96.5158 45.08 95.8225 45.32C95.1292 45.56 94.3958 45.76 93.6225 45.92C92.8492 46.0533 92.0625 46.1467 91.2625 46.2C90.4625 46.28 89.7025 46.32 88.9825 46.32C87.6492 46.32 86.4092 46.2 85.2625 45.96C84.1158 45.72 83.1158 45.3067 82.2625 44.72C81.4092 44.1333 80.7292 43.36 80.2225 42.4C79.7425 41.4133 79.5025 40.2 79.5025 38.76C79.5025 37.4533 79.7025 36.1733 80.1025 34.92C80.5292 33.6667 81.2225 32.56 82.1825 31.6C83.1692 30.6133 84.4758 29.8267 86.1025 29.24C87.7558 28.6533 89.8092 28.36 92.2625 28.36C94.9292 28.36 96.9292 28.7733 98.2625 29.6C99.6225 30.4267 100.303 31.72 100.303 33.48C100.303 34.2 100.196 34.9867 99.9825 35.84C99.7692 36.6667 99.4492 37.3733 99.0225 37.96H87.7825ZM93.1025 33.2C93.1025 32.3733 92.9692 31.8133 92.7025 31.52C92.4358 31.2267 92.1158 31.08 91.7425 31.08C91.3158 31.08 90.9158 31.2267 90.5425 31.52C90.1958 31.7867 89.8758 32.16 89.5825 32.64C89.2892 33.0933 89.0225 33.6267 88.7825 34.24C88.5425 34.8267 88.3425 35.4533 88.1825 36.12H92.7425C92.7958 35.8 92.8492 35.4667 92.9025 35.12C92.9558 34.8267 92.9958 34.5067 93.0225 34.16C93.0758 33.8133 93.1025 33.4933 93.1025 33.2ZM108.698 46H100.537L106.217 19.12H114.418L108.698 46ZM123.376 31.36C123.936 30.8267 124.563 30.3333 125.256 29.88C125.87 29.5067 126.59 29.16 127.416 28.84C128.243 28.52 129.163 28.36 130.176 28.36C131.563 28.36 132.71 28.72 133.616 29.44C134.523 30.1333 134.976 31.0933 134.976 32.32C134.976 32.6667 134.936 33.0933 134.856 33.6C134.776 34.08 134.683 34.5867 134.576 35.12C134.47 35.6533 134.35 36.2 134.216 36.76C134.11 37.2933 134.016 37.7733 133.936 38.2L132.256 46H124.136L126.336 35.56C126.39 35.2133 126.456 34.8667 126.536 34.52C126.616 34.1467 126.656 33.8133 126.656 33.52C126.656 33.12 126.55 32.8 126.336 32.56C126.15 32.2933 125.856 32.16 125.456 32.16C124.976 32.16 124.51 32.3333 124.056 32.68C123.63 33.0267 123.296 33.32 123.056 33.56L120.416 46H112.256L115.896 28.8H122.416L123.136 31.36H123.376ZM148.694 28.36C151.867 28.36 154.174 28.92 155.614 30.04C157.134 31.2133 157.894 33.16 157.894 35.88C157.894 37.56 157.614 39.08 157.054 40.44C156.494 41.7733 155.707 42.88 154.694 43.76C152.667 45.4667 149.734 46.32 145.894 46.32C142.614 46.32 140.267 45.6933 138.854 44.44C137.334 43.1333 136.574 41.1733 136.574 38.56C136.574 36.8267 136.92 35.2533 137.614 33.84C138.334 32.4267 139.36 31.2533 140.694 30.32C142.64 29.0133 145.307 28.36 148.694 28.36ZM145.974 43.6C146.64 43.6 147.214 43.2267 147.694 42.48C148.2 41.7333 148.6 40.8267 148.894 39.76C149.187 38.6667 149.4 37.5467 149.534 36.4C149.694 35.2267 149.774 34.2133 149.774 33.36C149.774 32.6133 149.694 32.0533 149.534 31.68C149.4 31.28 149.094 31.08 148.614 31.08C147.894 31.08 147.267 31.4667 146.734 32.24C146.227 33.0133 145.814 33.9333 145.494 35C145.174 36.0667 144.934 37.16 144.774 38.28C144.64 39.4 144.574 40.3067 144.574 41C144.574 42.7333 145.04 43.6 145.974 43.6ZM169.822 31.36C170.382 30.8267 171.008 30.3333 171.702 29.88C172.315 29.5067 173.048 29.16 173.902 28.84C174.755 28.52 175.715 28.36 176.782 28.36C178.062 28.36 179.008 28.6533 179.622 29.24C180.262 29.8267 180.622 30.5467 180.702 31.4H180.942C181.555 30.84 182.222 30.3333 182.942 29.88C183.555 29.5067 184.275 29.16 185.102 28.84C185.928 28.52 186.808 28.36 187.742 28.36C189.128 28.36 190.248 28.7467 191.102 29.52C191.982 30.2667 192.422 31.24 192.422 32.44C192.422 33.0533 192.315 33.8667 192.102 34.88C191.888 35.8933 191.648 37 191.382 38.2L189.702 46H181.822L183.982 35.56C184.062 35.16 184.142 34.7733 184.222 34.4C184.302 34.0267 184.342 33.72 184.342 33.48C184.342 33.1067 184.235 32.8 184.022 32.56C183.808 32.2933 183.502 32.16 183.102 32.16C182.595 32.16 182.115 32.3467 181.662 32.72C181.235 33.0667 180.902 33.36 180.662 33.6L178.062 46H170.582L172.782 35.56C172.835 35.2133 172.902 34.8667 172.982 34.52C173.062 34.1467 173.102 33.8133 173.102 33.52C173.102 33.12 172.995 32.8 172.782 32.56C172.595 32.2933 172.302 32.16 171.902 32.16C171.422 32.16 170.955 32.3333 170.502 32.68C170.075 33.0267 169.742 33.32 169.502 33.56L166.862 46H158.702L162.342 28.8H168.862L169.582 31.36H169.822ZM196.435 30.28C197.795 29.6133 199.181 29.1333 200.595 28.84C202.035 28.52 203.635 28.36 205.395 28.36C207.101 28.36 208.515 28.4933 209.635 28.76C210.755 29.0267 211.648 29.4133 212.315 29.92C212.981 30.4267 213.448 31.0267 213.715 31.72C213.981 32.4133 214.115 33.2 214.115 34.08C214.115 34.5867 214.075 35.1333 213.995 35.72C213.941 36.3067 213.875 36.8 213.795 37.2L211.915 46H205.475L204.755 43.44H204.515C203.661 44.3733 202.661 45.0933 201.515 45.6C200.395 46.08 199.275 46.32 198.155 46.32C197.515 46.32 196.888 46.2267 196.275 46.04C195.661 45.8533 195.115 45.5733 194.635 45.2C194.155 44.8 193.768 44.3067 193.475 43.72C193.181 43.1067 193.035 42.3733 193.035 41.52C193.035 40.1333 193.408 39.04 194.155 38.24C194.928 37.4133 195.928 36.8 197.155 36.4C198.408 35.9733 199.808 35.7067 201.355 35.6C202.928 35.4933 204.501 35.44 206.075 35.44C206.128 35.1733 206.195 34.8 206.275 34.32C206.355 33.8133 206.395 33.3733 206.395 33C206.395 32.52 206.261 32.08 205.995 31.68C205.755 31.2533 205.235 31.04 204.435 31.04C203.501 31.04 202.808 31.32 202.355 31.88C201.928 32.4133 201.648 33.0667 201.515 33.84H195.675L196.435 30.28ZM205.635 37.32H204.915C204.141 37.32 203.475 37.4267 202.915 37.64C202.381 37.8267 201.941 38.08 201.595 38.4C201.275 38.72 201.035 39.08 200.875 39.48C200.715 39.88 200.635 40.28 200.635 40.68C200.635 41.32 200.795 41.8 201.115 42.12C201.461 42.44 201.861 42.6 202.315 42.6C202.875 42.6 203.421 42.4 203.955 42C204.515 41.6 204.861 41.0667 204.995 40.4L205.635 37.32ZM232.265 19.12H240.465L234.745 46H228.265L227.545 43.44H227.265C227.105 43.68 226.852 43.9733 226.505 44.32C226.185 44.64 225.772 44.96 225.265 45.28C224.758 45.5733 224.158 45.8133 223.465 46C222.772 46.2133 221.972 46.32 221.065 46.32C220.132 46.32 219.332 46.1867 218.665 45.92C218.025 45.6267 217.492 45.24 217.065 44.76C216.665 44.28 216.372 43.7067 216.185 43.04C215.998 42.3467 215.905 41.6 215.905 40.8C215.905 40.4533 215.932 39.9067 215.985 39.16C216.038 38.3867 216.158 37.5467 216.345 36.64C216.558 35.7067 216.852 34.76 217.225 33.8C217.625 32.8133 218.145 31.92 218.785 31.12C219.452 30.32 220.265 29.6667 221.225 29.16C222.185 28.6267 223.345 28.36 224.705 28.36C225.132 28.36 225.585 28.4 226.065 28.48C226.545 28.56 226.998 28.7067 227.425 28.92C227.878 29.1333 228.278 29.44 228.625 29.84C228.972 30.24 229.225 30.76 229.385 31.4H229.665L232.265 19.12ZM227.385 32.28C226.745 32.28 226.212 32.64 225.785 33.36C225.358 34.0533 225.012 34.8667 224.745 35.8C224.478 36.7333 224.278 37.6667 224.145 38.6C224.038 39.5333 223.985 40.2267 223.985 40.68C223.985 41.2133 224.065 41.6667 224.225 42.04C224.385 42.3867 224.692 42.56 225.145 42.56C225.412 42.56 225.665 42.5067 225.905 42.4C226.172 42.2667 226.412 42.12 226.625 41.96C226.865 41.7733 227.065 41.5867 227.225 41.4C227.385 41.2133 227.518 41.0533 227.625 40.92L229.185 33.64C228.998 33.3467 228.745 33.0533 228.425 32.76C228.132 32.44 227.785 32.28 227.385 32.28ZM247.431 37.96C247.324 38.5467 247.244 39.1067 247.191 39.64C247.164 40.1733 247.151 40.6533 247.151 41.08C247.151 41.32 247.164 41.5867 247.191 41.88C247.218 42.1733 247.271 42.4533 247.351 42.72C247.458 42.96 247.591 43.1733 247.751 43.36C247.938 43.52 248.191 43.6 248.511 43.6C248.751 43.6 249.018 43.52 249.311 43.36C249.631 43.2 249.938 42.9733 250.231 42.68C250.551 42.3867 250.844 42.0267 251.111 41.6C251.404 41.1733 251.631 40.6933 251.791 40.16H258.351L257.311 44.44C256.778 44.7867 256.164 45.08 255.471 45.32C254.778 45.56 254.044 45.76 253.271 45.92C252.498 46.0533 251.711 46.1467 250.911 46.2C250.111 46.28 249.351 46.32 248.631 46.32C247.298 46.32 246.058 46.2 244.911 45.96C243.764 45.72 242.764 45.3067 241.911 44.72C241.058 44.1333 240.378 43.36 239.871 42.4C239.391 41.4133 239.151 40.2 239.151 38.76C239.151 37.4533 239.351 36.1733 239.751 34.92C240.178 33.6667 240.871 32.56 241.831 31.6C242.818 30.6133 244.124 29.8267 245.751 29.24C247.404 28.6533 249.458 28.36 251.911 28.36C254.578 28.36 256.578 28.7733 257.911 29.6C259.271 30.4267 259.951 31.72 259.951 33.48C259.951 34.2 259.844 34.9867 259.631 35.84C259.418 36.6667 259.098 37.3733 258.671 37.96H247.431ZM252.751 33.2C252.751 32.3733 252.618 31.8133 252.351 31.52C252.084 31.2267 251.764 31.08 251.391 31.08C250.964 31.08 250.564 31.2267 250.191 31.52C249.844 31.7867 249.524 32.16 249.231 32.64C248.938 33.0933 248.671 33.6267 248.431 34.24C248.191 34.8267 247.991 35.4533 247.831 36.12H252.391C252.444 35.8 252.498 35.4667 252.551 35.12C252.604 34.8267 252.644 34.5067 252.671 34.16C252.724 33.8133 252.751 33.4933 252.751 33.2ZM263.826 28.8H270.346L270.946 31.8H271.226C271.839 30.84 272.626 30.0267 273.586 29.36C274.546 28.6933 275.813 28.36 277.386 28.36C277.493 28.36 277.653 28.3733 277.866 28.4C278.106 28.4 278.359 28.44 278.626 28.52C278.919 28.5733 279.213 28.6667 279.506 28.8C279.826 28.9067 280.133 29.0667 280.426 29.28L278.666 37.52H274.306C274.253 35.8667 274.106 34.72 273.866 34.08C273.626 33.4133 273.239 33.08 272.706 33.08C272.439 33.08 272.146 33.1467 271.826 33.28C271.533 33.3867 271.226 33.64 270.906 34.04L268.346 46H260.186L263.826 28.8Z"/>
</mask>
<path d="M32.56 43.84C31.8933 44.16 31.2 44.48 30.48 44.8C29.7867 45.0933 29.04 45.36 28.24 45.6C27.44 45.8133 26.56 45.9867 25.6 46.12C24.6667 46.2533 23.64 46.32 22.52 46.32C18.9467 46.32 16.1867 45.52 14.24 43.92C12.32 42.32 11.36 39.6533 11.36 35.92C11.36 33.76 11.6933 31.7333 12.36 29.84C13.0267 27.92 14.0133 26.2533 15.32 24.84C16.6267 23.4 18.24 22.2667 20.16 21.44C22.08 20.6133 24.28 20.2 26.76 20.2C27.9333 20.2 29 20.28 29.96 20.44C30.9467 20.6 31.8267 20.8133 32.6 21.08C33.4 21.32 34.1067 21.5867 34.72 21.88C35.36 22.1733 35.9333 22.4533 36.44 22.72L35 30.16H27.8C27.8267 29.8933 27.8533 29.5467 27.88 29.12C27.9333 28.6933 27.9733 28.2667 28 27.84C28.0267 27.3867 28.0533 26.9467 28.08 26.52C28.1067 26.0933 28.12 25.7333 28.12 25.44C28.12 25.2267 28.1067 24.9867 28.08 24.72C28.0533 24.4267 27.9867 24.1467 27.88 23.88C27.7733 23.6133 27.6 23.4 27.36 23.24C27.1467 23.0533 26.8533 22.96 26.48 22.96C25.7867 22.96 25.1467 23.2533 24.56 23.84C24 24.4 23.4933 25.16 23.04 26.12C22.5867 27.0533 22.1867 28.12 21.84 29.32C21.4933 30.52 21.2 31.7467 20.96 33C20.7467 34.2267 20.5733 35.44 20.44 36.64C20.3333 37.84 20.28 38.8933 20.28 39.8C20.28 40.0667 20.2933 40.4 20.32 40.8C20.3467 41.2 20.4267 41.5867 20.56 41.96C20.6933 42.3333 20.8933 42.6533 21.16 42.92C21.4533 43.1867 21.84 43.32 22.32 43.32C23.1467 43.32 23.9467 42.8133 24.72 41.8C25.4933 40.76 26.1733 38.92 26.76 36.28H34.16L32.56 43.84ZM45.5869 28.8L46.7869 40.56L53.1069 28.8H57.3469L47.7069 46C46.7469 47.68 45.7735 48.9733 44.7869 49.88C43.8002 50.7867 42.7202 51.4533 41.5469 51.88C40.4002 52.3067 39.1202 52.5467 37.7069 52.6C36.3202 52.68 34.7335 52.72 32.9469 52.72L33.5469 49.96C34.4269 49.96 35.2402 49.9467 35.9869 49.92C36.7602 49.8933 37.3735 49.8133 37.8269 49.68C38.4402 49.52 38.8802 49.2267 39.1469 48.8C39.4135 48.4 39.5469 47.8 39.5469 47C39.5469 46.4667 39.4935 45.8533 39.3869 45.16C39.3069 44.4667 39.2135 43.7333 39.1069 42.96L37.1469 28.8H45.5869ZM66.0909 36.08L75.4109 28.8H80.6909L72.7309 35.32L78.6909 46H69.7309L65.6509 37.96L63.9709 46H55.8109L61.4909 19.12H69.6909L66.0909 36.08ZM87.7825 37.96C87.6758 38.5467 87.5958 39.1067 87.5425 39.64C87.5158 40.1733 87.5025 40.6533 87.5025 41.08C87.5025 41.32 87.5158 41.5867 87.5425 41.88C87.5692 42.1733 87.6225 42.4533 87.7025 42.72C87.8092 42.96 87.9425 43.1733 88.1025 43.36C88.2892 43.52 88.5425 43.6 88.8625 43.6C89.1025 43.6 89.3692 43.52 89.6625 43.36C89.9825 43.2 90.2892 42.9733 90.5825 42.68C90.9025 42.3867 91.1958 42.0267 91.4625 41.6C91.7558 41.1733 91.9825 40.6933 92.1425 40.16H98.7025L97.6625 44.44C97.1292 44.7867 96.5158 45.08 95.8225 45.32C95.1292 45.56 94.3958 45.76 93.6225 45.92C92.8492 46.0533 92.0625 46.1467 91.2625 46.2C90.4625 46.28 89.7025 46.32 88.9825 46.32C87.6492 46.32 86.4092 46.2 85.2625 45.96C84.1158 45.72 83.1158 45.3067 82.2625 44.72C81.4092 44.1333 80.7292 43.36 80.2225 42.4C79.7425 41.4133 79.5025 40.2 79.5025 38.76C79.5025 37.4533 79.7025 36.1733 80.1025 34.92C80.5292 33.6667 81.2225 32.56 82.1825 31.6C83.1692 30.6133 84.4758 29.8267 86.1025 29.24C87.7558 28.6533 89.8092 28.36 92.2625 28.36C94.9292 28.36 96.9292 28.7733 98.2625 29.6C99.6225 30.4267 100.303 31.72 100.303 33.48C100.303 34.2 100.196 34.9867 99.9825 35.84C99.7692 36.6667 99.4492 37.3733 99.0225 37.96H87.7825ZM93.1025 33.2C93.1025 32.3733 92.9692 31.8133 92.7025 31.52C92.4358 31.2267 92.1158 31.08 91.7425 31.08C91.3158 31.08 90.9158 31.2267 90.5425 31.52C90.1958 31.7867 89.8758 32.16 89.5825 32.64C89.2892 33.0933 89.0225 33.6267 88.7825 34.24C88.5425 34.8267 88.3425 35.4533 88.1825 36.12H92.7425C92.7958 35.8 92.8492 35.4667 92.9025 35.12C92.9558 34.8267 92.9958 34.5067 93.0225 34.16C93.0758 33.8133 93.1025 33.4933 93.1025 33.2ZM108.698 46H100.537L106.217 19.12H114.418L108.698 46ZM123.376 31.36C123.936 30.8267 124.563 30.3333 125.256 29.88C125.87 29.5067 126.59 29.16 127.416 28.84C128.243 28.52 129.163 28.36 130.176 28.36C131.563 28.36 132.71 28.72 133.616 29.44C134.523 30.1333 134.976 31.0933 134.976 32.32C134.976 32.6667 134.936 33.0933 134.856 33.6C134.776 34.08 134.683 34.5867 134.576 35.12C134.47 35.6533 134.35 36.2 134.216 36.76C134.11 37.2933 134.016 37.7733 133.936 38.2L132.256 46H124.136L126.336 35.56C126.39 35.2133 126.456 34.8667 126.536 34.52C126.616 34.1467 126.656 33.8133 126.656 33.52C126.656 33.12 126.55 32.8 126.336 32.56C126.15 32.2933 125.856 32.16 125.456 32.16C124.976 32.16 124.51 32.3333 124.056 32.68C123.63 33.0267 123.296 33.32 123.056 33.56L120.416 46H112.256L115.896 28.8H122.416L123.136 31.36H123.376ZM148.694 28.36C151.867 28.36 154.174 28.92 155.614 30.04C157.134 31.2133 157.894 33.16 157.894 35.88C157.894 37.56 157.614 39.08 157.054 40.44C156.494 41.7733 155.707 42.88 154.694 43.76C152.667 45.4667 149.734 46.32 145.894 46.32C142.614 46.32 140.267 45.6933 138.854 44.44C137.334 43.1333 136.574 41.1733 136.574 38.56C136.574 36.8267 136.92 35.2533 137.614 33.84C138.334 32.4267 139.36 31.2533 140.694 30.32C142.64 29.0133 145.307 28.36 148.694 28.36ZM145.974 43.6C146.64 43.6 147.214 43.2267 147.694 42.48C148.2 41.7333 148.6 40.8267 148.894 39.76C149.187 38.6667 149.4 37.5467 149.534 36.4C149.694 35.2267 149.774 34.2133 149.774 33.36C149.774 32.6133 149.694 32.0533 149.534 31.68C149.4 31.28 149.094 31.08 148.614 31.08C147.894 31.08 147.267 31.4667 146.734 32.24C146.227 33.0133 145.814 33.9333 145.494 35C145.174 36.0667 144.934 37.16 144.774 38.28C144.64 39.4 144.574 40.3067 144.574 41C144.574 42.7333 145.04 43.6 145.974 43.6ZM169.822 31.36C170.382 30.8267 171.008 30.3333 171.702 29.88C172.315 29.5067 173.048 29.16 173.902 28.84C174.755 28.52 175.715 28.36 176.782 28.36C178.062 28.36 179.008 28.6533 179.622 29.24C180.262 29.8267 180.622 30.5467 180.702 31.4H180.942C181.555 30.84 182.222 30.3333 182.942 29.88C183.555 29.5067 184.275 29.16 185.102 28.84C185.928 28.52 186.808 28.36 187.742 28.36C189.128 28.36 190.248 28.7467 191.102 29.52C191.982 30.2667 192.422 31.24 192.422 32.44C192.422 33.0533 192.315 33.8667 192.102 34.88C191.888 35.8933 191.648 37 191.382 38.2L189.702 46H181.822L183.982 35.56C184.062 35.16 184.142 34.7733 184.222 34.4C184.302 34.0267 184.342 33.72 184.342 33.48C184.342 33.1067 184.235 32.8 184.022 32.56C183.808 32.2933 183.502 32.16 183.102 32.16C182.595 32.16 182.115 32.3467 181.662 32.72C181.235 33.0667 180.902 33.36 180.662 33.6L178.062 46H170.582L172.782 35.56C172.835 35.2133 172.902 34.8667 172.982 34.52C173.062 34.1467 173.102 33.8133 173.102 33.52C173.102 33.12 172.995 32.8 172.782 32.56C172.595 32.2933 172.302 32.16 171.902 32.16C171.422 32.16 170.955 32.3333 170.502 32.68C170.075 33.0267 169.742 33.32 169.502 33.56L166.862 46H158.702L162.342 28.8H168.862L169.582 31.36H169.822ZM196.435 30.28C197.795 29.6133 199.181 29.1333 200.595 28.84C202.035 28.52 203.635 28.36 205.395 28.36C207.101 28.36 208.515 28.4933 209.635 28.76C210.755 29.0267 211.648 29.4133 212.315 29.92C212.981 30.4267 213.448 31.0267 213.715 31.72C213.981 32.4133 214.115 33.2 214.115 34.08C214.115 34.5867 214.075 35.1333 213.995 35.72C213.941 36.3067 213.875 36.8 213.795 37.2L211.915 46H205.475L204.755 43.44H204.515C203.661 44.3733 202.661 45.0933 201.515 45.6C200.395 46.08 199.275 46.32 198.155 46.32C197.515 46.32 196.888 46.2267 196.275 46.04C195.661 45.8533 195.115 45.5733 194.635 45.2C194.155 44.8 193.768 44.3067 193.475 43.72C193.181 43.1067 193.035 42.3733 193.035 41.52C193.035 40.1333 193.408 39.04 194.155 38.24C194.928 37.4133 195.928 36.8 197.155 36.4C198.408 35.9733 199.808 35.7067 201.355 35.6C202.928 35.4933 204.501 35.44 206.075 35.44C206.128 35.1733 206.195 34.8 206.275 34.32C206.355 33.8133 206.395 33.3733 206.395 33C206.395 32.52 206.261 32.08 205.995 31.68C205.755 31.2533 205.235 31.04 204.435 31.04C203.501 31.04 202.808 31.32 202.355 31.88C201.928 32.4133 201.648 33.0667 201.515 33.84H195.675L196.435 30.28ZM205.635 37.32H204.915C204.141 37.32 203.475 37.4267 202.915 37.64C202.381 37.8267 201.941 38.08 201.595 38.4C201.275 38.72 201.035 39.08 200.875 39.48C200.715 39.88 200.635 40.28 200.635 40.68C200.635 41.32 200.795 41.8 201.115 42.12C201.461 42.44 201.861 42.6 202.315 42.6C202.875 42.6 203.421 42.4 203.955 42C204.515 41.6 204.861 41.0667 204.995 40.4L205.635 37.32ZM232.265 19.12H240.465L234.745 46H228.265L227.545 43.44H227.265C227.105 43.68 226.852 43.9733 226.505 44.32C226.185 44.64 225.772 44.96 225.265 45.28C224.758 45.5733 224.158 45.8133 223.465 46C222.772 46.2133 221.972 46.32 221.065 46.32C220.132 46.32 219.332 46.1867 218.665 45.92C218.025 45.6267 217.492 45.24 217.065 44.76C216.665 44.28 216.372 43.7067 216.185 43.04C215.998 42.3467 215.905 41.6 215.905 40.8C215.905 40.4533 215.932 39.9067 215.985 39.16C216.038 38.3867 216.158 37.5467 216.345 36.64C216.558 35.7067 216.852 34.76 217.225 33.8C217.625 32.8133 218.145 31.92 218.785 31.12C219.452 30.32 220.265 29.6667 221.225 29.16C222.185 28.6267 223.345 28.36 224.705 28.36C225.132 28.36 225.585 28.4 226.065 28.48C226.545 28.56 226.998 28.7067 227.425 28.92C227.878 29.1333 228.278 29.44 228.625 29.84C228.972 30.24 229.225 30.76 229.385 31.4H229.665L232.265 19.12ZM227.385 32.28C226.745 32.28 226.212 32.64 225.785 33.36C225.358 34.0533 225.012 34.8667 224.745 35.8C224.478 36.7333 224.278 37.6667 224.145 38.6C224.038 39.5333 223.985 40.2267 223.985 40.68C223.985 41.2133 224.065 41.6667 224.225 42.04C224.385 42.3867 224.692 42.56 225.145 42.56C225.412 42.56 225.665 42.5067 225.905 42.4C226.172 42.2667 226.412 42.12 226.625 41.96C226.865 41.7733 227.065 41.5867 227.225 41.4C227.385 41.2133 227.518 41.0533 227.625 40.92L229.185 33.64C228.998 33.3467 228.745 33.0533 228.425 32.76C228.132 32.44 227.785 32.28 227.385 32.28ZM247.431 37.96C247.324 38.5467 247.244 39.1067 247.191 39.64C247.164 40.1733 247.151 40.6533 247.151 41.08C247.151 41.32 247.164 41.5867 247.191 41.88C247.218 42.1733 247.271 42.4533 247.351 42.72C247.458 42.96 247.591 43.1733 247.751 43.36C247.938 43.52 248.191 43.6 248.511 43.6C248.751 43.6 249.018 43.52 249.311 43.36C249.631 43.2 249.938 42.9733 250.231 42.68C250.551 42.3867 250.844 42.0267 251.111 41.6C251.404 41.1733 251.631 40.6933 251.791 40.16H258.351L257.311 44.44C256.778 44.7867 256.164 45.08 255.471 45.32C254.778 45.56 254.044 45.76 253.271 45.92C252.498 46.0533 251.711 46.1467 250.911 46.2C250.111 46.28 249.351 46.32 248.631 46.32C247.298 46.32 246.058 46.2 244.911 45.96C243.764 45.72 242.764 45.3067 241.911 44.72C241.058 44.1333 240.378 43.36 239.871 42.4C239.391 41.4133 239.151 40.2 239.151 38.76C239.151 37.4533 239.351 36.1733 239.751 34.92C240.178 33.6667 240.871 32.56 241.831 31.6C242.818 30.6133 244.124 29.8267 245.751 29.24C247.404 28.6533 249.458 28.36 251.911 28.36C254.578 28.36 256.578 28.7733 257.911 29.6C259.271 30.4267 259.951 31.72 259.951 33.48C259.951 34.2 259.844 34.9867 259.631 35.84C259.418 36.6667 259.098 37.3733 258.671 37.96H247.431ZM252.751 33.2C252.751 32.3733 252.618 31.8133 252.351 31.52C252.084 31.2267 251.764 31.08 251.391 31.08C250.964 31.08 250.564 31.2267 250.191 31.52C249.844 31.7867 249.524 32.16 249.231 32.64C248.938 33.0933 248.671 33.6267 248.431 34.24C248.191 34.8267 247.991 35.4533 247.831 36.12H252.391C252.444 35.8 252.498 35.4667 252.551 35.12C252.604 34.8267 252.644 34.5067 252.671 34.16C252.724 33.8133 252.751 33.4933 252.751 33.2ZM263.826 28.8H270.346L270.946 31.8H271.226C271.839 30.84 272.626 30.0267 273.586 29.36C274.546 28.6933 275.813 28.36 277.386 28.36C277.493 28.36 277.653 28.3733 277.866 28.4C278.106 28.4 278.359 28.44 278.626 28.52C278.919 28.5733 279.213 28.6667 279.506 28.8C279.826 28.9067 280.133 29.0667 280.426 29.28L278.666 37.52H274.306C274.253 35.8667 274.106 34.72 273.866 34.08C273.626 33.4133 273.239 33.08 272.706 33.08C272.439 33.08 272.146 33.1467 271.826 33.28C271.533 33.3867 271.226 33.64 270.906 34.04L268.346 46H260.186L263.826 28.8Z" fill="#EFE947"/>
<path d="M32.56 43.84L33.4255 45.643L34.3129 45.2171L34.5167 44.2541L32.56 43.84ZM30.48 44.8L31.2593 46.6419L31.2758 46.6349L31.2923 46.6276L30.48 44.8ZM28.24 45.6L28.7553 47.5325L28.7851 47.5245L28.8147 47.5157L28.24 45.6ZM25.6 46.12L25.3249 44.139L25.3172 44.1401L25.6 46.12ZM14.24 43.92L12.9596 45.4565L12.9701 45.4651L14.24 43.92ZM12.36 29.84L14.2465 30.5043L14.2493 30.496L12.36 29.84ZM15.32 24.84L16.7885 26.1977L16.7949 26.1909L16.8011 26.184L15.32 24.84ZM29.96 20.44L29.6312 22.4128L29.6399 22.4142L29.96 20.44ZM32.6 21.08L31.948 22.9707L31.9864 22.984L32.0253 22.9957L32.6 21.08ZM34.72 21.88L33.8571 23.6843L33.8718 23.6913L33.8867 23.6981L34.72 21.88ZM36.44 22.72L38.4036 23.1L38.6858 21.6419L37.3715 20.9502L36.44 22.72ZM35 30.16V32.16H36.65L36.9636 30.54L35 30.16ZM27.8 30.16L25.8099 29.961L25.59 32.16H27.8V30.16ZM27.88 29.12L25.8954 28.8719L25.8878 28.9334L25.8839 28.9952L27.88 29.12ZM28 27.84L29.9961 27.9648L29.9965 27.9574L28 27.84ZM28.08 24.72L26.0882 24.9011L26.089 24.91L26.0899 24.919L28.08 24.72ZM27.36 23.24L26.043 24.7451L26.1416 24.8314L26.2506 24.9041L27.36 23.24ZM24.56 23.84L25.9742 25.2542L25.9742 25.2542L24.56 23.84ZM23.04 26.12L24.839 26.9938L24.8438 26.9839L24.8485 26.974L23.04 26.12ZM21.84 29.32L19.9186 28.7649L19.9186 28.7649L21.84 29.32ZM20.96 33L18.9957 32.6239L18.9925 32.6406L18.9896 32.6573L20.96 33ZM20.44 36.64L18.4522 36.4191L18.4498 36.441L18.4479 36.4629L20.44 36.64ZM20.32 40.8L22.3156 40.667L22.3156 40.667L20.32 40.8ZM20.56 41.96L18.6765 42.6327L18.6765 42.6327L20.56 41.96ZM21.16 42.92L19.7458 44.3342L19.7794 44.3679L19.8147 44.3999L21.16 42.92ZM24.72 41.8L26.3099 43.0133L26.3175 43.0034L26.3249 42.9934L24.72 41.8ZM26.76 36.28V34.28H25.1557L24.8076 35.8461L26.76 36.28ZM34.16 36.28L36.1167 36.6941L36.6276 34.28H34.16V36.28ZM31.6945 42.037C31.0466 42.348 30.371 42.6598 29.6677 42.9724L31.2923 46.6276C32.029 46.3002 32.7401 45.972 33.4255 45.643L31.6945 42.037ZM29.7007 42.9581C29.081 43.2203 28.4032 43.463 27.6653 43.6843L28.8147 47.5157C29.6768 47.257 30.4924 46.9664 31.2593 46.6419L29.7007 42.9581ZM27.7247 43.6675C27.0156 43.8566 26.2172 44.0151 25.3249 44.139L25.8751 48.101C26.9028 47.9582 27.8644 47.7701 28.7553 47.5325L27.7247 43.6675ZM25.3172 44.1401C24.493 44.2578 23.5624 44.32 22.52 44.32V48.32C23.7176 48.32 24.8404 48.2488 25.8828 48.0999L25.3172 44.1401ZM22.52 44.32C19.2197 44.32 16.9751 43.5792 15.5099 42.3749L12.9701 45.4651C15.3982 47.4608 18.6737 48.32 22.52 48.32V44.32ZM15.5204 42.3836C14.2446 41.3204 13.36 39.3586 13.36 35.92H9.36C9.36 39.9481 10.3954 43.3196 12.9596 45.4564L15.5204 42.3836ZM13.36 35.92C13.36 33.969 13.6605 32.1685 14.2465 30.5042L10.4735 29.1757C9.7262 31.2982 9.36 33.551 9.36 35.92H13.36ZM14.2493 30.496C14.8307 28.8216 15.6794 27.3974 16.7885 26.1977L13.8515 23.4823C12.3473 25.1092 11.2226 27.0184 10.4707 29.184L14.2493 30.496ZM16.8011 26.184C17.9015 24.9713 19.2736 23.9992 20.9509 23.277L19.3691 19.603C17.2064 20.5342 15.3519 21.8287 13.8389 23.496L16.8011 26.184ZM20.9509 23.277C22.579 22.576 24.5021 22.2 26.76 22.2V18.2C24.0579 18.2 21.581 18.6507 19.3691 19.603L20.9509 23.277ZM26.76 22.2C27.8448 22.2 28.7993 22.2741 29.6312 22.4128L30.2888 18.4672C29.2007 18.2859 28.0219 18.2 26.76 18.2V22.2ZM29.6399 22.4142C30.5375 22.5598 31.3033 22.7484 31.948 22.9707L33.252 19.1893C32.35 18.8782 31.3558 18.6402 30.2801 18.4658L29.6399 22.4142ZM32.0253 22.9957C32.7479 23.2124 33.355 23.4441 33.8571 23.6843L35.5829 20.0757C34.8583 19.7292 34.0521 19.4276 33.1747 19.1643L32.0253 22.9957ZM33.8867 23.6981C34.5007 23.9796 35.0404 24.2435 35.5085 24.4898L37.3715 20.9502C36.8262 20.6632 36.2193 20.3671 35.5533 20.0619L33.8867 23.6981ZM34.4764 22.34L33.0364 29.78L36.9636 30.54L38.4036 23.1L34.4764 22.34ZM35 28.16H27.8V32.16H35V28.16ZM29.7901 30.359C29.8202 30.0576 29.8487 29.6835 29.8761 29.2448L25.8839 28.9952C25.858 29.4098 25.8331 29.7291 25.8099 29.961L29.7901 30.359ZM29.8646 29.3681C29.923 28.9007 29.9668 28.4329 29.9961 27.9648L26.0039 27.7152C25.9798 28.1005 25.9437 28.486 25.8954 28.8719L29.8646 29.3681ZM29.9965 27.9574C30.0231 27.5064 30.0496 27.0688 30.0761 26.6448L26.0839 26.3952C26.0571 26.8245 26.0303 27.2669 26.0035 27.7226L29.9965 27.9574ZM30.0761 26.6448C30.1043 26.1935 30.12 25.789 30.12 25.44H26.12C26.12 25.6777 26.109 25.9932 26.0839 26.3952L30.0761 26.6448ZM30.12 25.44C30.12 25.1459 30.1018 24.8379 30.0701 24.521L26.0899 24.919C26.1116 25.1354 26.12 25.3074 26.12 25.44H30.12ZM30.0718 24.5389C30.028 24.0578 29.9173 23.5882 29.737 23.1372L26.023 24.6228C26.056 24.7051 26.0786 24.7955 26.0882 24.9011L30.0718 24.5389ZM29.737 23.1372C29.4793 22.4932 29.0445 21.9593 28.4694 21.5759L26.2506 24.9041C26.2119 24.8783 26.1638 24.8378 26.1178 24.7812C26.0717 24.7245 26.0412 24.6682 26.023 24.6228L29.737 23.1372ZM28.677 21.7349C27.9966 21.1394 27.1815 20.96 26.48 20.96V24.96C26.5031 24.96 26.4596 24.9632 26.3736 24.9358C26.2811 24.9064 26.1604 24.8479 26.043 24.7451L28.677 21.7349ZM26.48 20.96C25.1541 20.96 24.0285 21.5431 23.1458 22.4258L25.9742 25.2542C26.2648 24.9636 26.4193 24.96 26.48 24.96V20.96ZM23.1458 22.4258C22.3782 23.1933 21.7517 24.1643 21.2315 25.266L24.8485 26.974C25.2349 26.1556 25.6218 25.6067 25.9742 25.2542L23.1458 22.4258ZM21.241 25.2462C20.729 26.3003 20.2907 27.4767 19.9186 28.7649L23.7614 29.8751C24.0826 28.7633 24.4443 27.8064 24.839 26.9938L21.241 25.2462ZM19.9186 28.7649C19.5545 30.0251 19.247 31.3116 18.9957 32.6239L22.9243 33.3761C23.153 32.1818 23.4322 31.0149 23.7614 29.8751L19.9186 28.7649ZM18.9896 32.6573C18.7694 33.9231 18.5902 35.1771 18.4522 36.4191L22.4278 36.8609C22.5564 35.7029 22.7239 34.5302 22.9304 33.3427L18.9896 32.6573ZM18.4479 36.4629C18.3375 37.704 18.28 38.8187 18.28 39.8H22.28C22.28 38.968 22.3291 37.976 22.4321 36.8171L18.4479 36.4629ZM18.28 39.8C18.28 40.1271 18.2961 40.5084 18.3244 40.933L22.3156 40.667C22.2905 40.2916 22.28 40.0062 22.28 39.8H18.28ZM18.3244 40.933C18.3632 41.5151 18.4804 42.0835 18.6765 42.6327L22.4435 41.2873C22.3729 41.0898 22.3301 40.8849 22.3156 40.667L18.3244 40.933ZM18.6765 42.6327C18.9042 43.2703 19.259 43.8474 19.7458 44.3342L22.5742 41.5058C22.5276 41.4592 22.4824 41.3964 22.4435 41.2873L18.6765 42.6327ZM19.8147 44.3999C20.5504 45.0687 21.4528 45.32 22.32 45.32V41.32C22.2643 41.32 22.2727 41.3123 22.322 41.3293C22.3769 41.3482 22.4447 41.385 22.5053 41.4401L19.8147 44.3999ZM22.32 45.32C24.0492 45.32 25.3677 44.2479 26.3099 43.0133L23.1301 40.5867C22.8405 40.9661 22.6138 41.1592 22.4699 41.2504C22.4017 41.2935 22.3587 41.3097 22.3402 41.3155C22.3307 41.3184 22.3253 41.3194 22.3234 41.3197C22.3216 41.32 22.3207 41.32 22.32 41.32V45.32ZM26.3249 42.9934C27.3668 41.5923 28.1168 39.3941 28.7124 36.7139L24.8076 35.8461C24.2299 38.4459 23.6199 39.9277 23.1151 40.6066L26.3249 42.9934ZM26.76 38.28H34.16V34.28H26.76V38.28ZM32.2033 35.8659L30.6033 43.4259L34.5167 44.2541L36.1167 36.6941L32.2033 35.8659ZM45.5869 28.8L47.5765 28.597L47.3932 26.8H45.5869V28.8ZM46.7869 40.56L44.7972 40.763L45.4596 47.2546L48.5486 41.5068L46.7869 40.56ZM53.1069 28.8V26.8H51.9112L51.3452 27.8532L53.1069 28.8ZM57.3469 28.8L59.0915 29.7778L60.7605 26.8H57.3469V28.8ZM47.7069 46L49.4434 46.9923L49.4475 46.9851L49.4515 46.9778L47.7069 46ZM44.7869 49.88L43.4336 48.4073L43.4336 48.4073L44.7869 49.88ZM41.5469 51.88L40.8634 50.0004L40.8564 50.003L40.8494 50.0056L41.5469 51.88ZM37.7069 52.6L37.6315 50.6014L37.6116 50.6022L37.5917 50.6033L37.7069 52.6ZM32.9469 52.72L30.9925 52.2951L30.4654 54.72H32.9469V52.72ZM33.5469 49.96V47.96H31.9349L31.5925 49.5351L33.5469 49.96ZM35.9869 49.92L35.918 47.9212L35.9155 47.9213L35.9869 49.92ZM37.8269 49.68L37.322 47.7448L37.2922 47.7526L37.2625 47.7613L37.8269 49.68ZM39.1469 48.8L37.4828 47.6906L37.4665 47.7151L37.4509 47.74L39.1469 48.8ZM39.3869 45.16L37.4001 45.3892L37.4044 45.4268L37.4101 45.4641L39.3869 45.16ZM39.1069 42.96L41.0881 42.6867L41.088 42.6858L39.1069 42.96ZM37.1469 28.8V26.8H34.851L35.1658 29.0742L37.1469 28.8ZM43.5972 29.003L44.7972 40.763L48.7765 40.357L47.5765 28.597L43.5972 29.003ZM48.5486 41.5068L54.8686 29.7468L51.3452 27.8532L45.0252 39.6132L48.5486 41.5068ZM53.1069 30.8H57.3469V26.8H53.1069V30.8ZM55.6022 27.8222L45.9622 45.0222L49.4515 46.9778L59.0915 29.7778L55.6022 27.8222ZM45.9704 45.0077C45.0714 46.581 44.2176 47.687 43.4336 48.4073L46.1401 51.3527C47.3295 50.2597 48.4224 48.779 49.4434 46.9923L45.9704 45.0077ZM43.4336 48.4073C42.6268 49.1487 41.7711 49.6703 40.8634 50.0004L42.2304 53.7596C43.6693 53.2363 44.9736 52.4246 46.1401 51.3527L43.4336 48.4073ZM40.8494 50.0056C39.9305 50.3475 38.8647 50.5549 37.6315 50.6014L37.7823 54.5986C39.3758 54.5384 40.8699 54.2659 42.2443 53.7544L40.8494 50.0056ZM37.5917 50.6033C36.2524 50.6806 34.7054 50.72 32.9469 50.72V54.72C34.7617 54.72 36.388 54.6794 37.8221 54.5967L37.5917 50.6033ZM34.9012 53.1449L35.5012 50.3849L31.5925 49.5351L30.9925 52.2951L34.9012 53.1449ZM33.5469 51.96C34.4466 51.96 35.2841 51.9464 36.0583 51.9187L35.9155 47.9213C35.1963 47.947 34.4071 47.96 33.5469 47.96V51.96ZM36.0558 51.9188C36.905 51.8895 37.7075 51.7998 38.3912 51.5987L37.2625 47.7613C37.0396 47.8268 36.6154 47.8971 35.918 47.9212L36.0558 51.9188ZM38.3317 51.6152C39.3052 51.3613 40.24 50.8246 40.8429 49.86L37.4509 47.74C37.4613 47.7233 37.474 47.7074 37.487 47.6941C37.4998 47.681 37.5082 47.6754 37.5075 47.6759C37.5051 47.6775 37.455 47.7101 37.322 47.7448L38.3317 51.6152ZM40.811 49.9094C41.3985 49.0281 41.5469 47.9591 41.5469 47H37.5469C37.5469 47.2952 37.5217 47.4938 37.4945 47.6161C37.4671 47.7392 37.4469 47.7444 37.4828 47.6906L40.811 49.9094ZM41.5469 47C41.5469 46.3389 41.4812 45.6204 41.3636 44.8559L37.4101 45.4641C37.5058 46.0862 37.5469 46.5944 37.5469 47H41.5469ZM41.3737 44.9308C41.2918 44.2211 41.1966 43.473 41.0881 42.6867L37.1256 43.2333C37.2305 43.9936 37.3219 44.7122 37.4001 45.3892L41.3737 44.9308ZM41.088 42.6858L39.128 28.5258L35.1658 29.0742L37.1258 43.2342L41.088 42.6858ZM37.1469 30.8H45.5869V26.8H37.1469V30.8ZM66.0909 36.08L64.1345 35.6647L62.9942 41.0367L67.3221 37.6562L66.0909 36.08ZM75.4109 28.8V26.8H74.7224L74.1798 27.2238L75.4109 28.8ZM80.6909 28.8L81.9583 30.3472L86.2889 26.8H80.6909V28.8ZM72.7309 35.32L71.4636 33.7728L70.1689 34.8332L70.9845 36.2946L72.7309 35.32ZM78.6909 46V48H82.0974L80.4374 45.0254L78.6909 46ZM69.7309 46L67.9474 46.9051L68.5031 48H69.7309V46ZM65.6509 37.96L67.4344 37.0549L64.8578 31.9775L63.6932 37.5509L65.6509 37.96ZM63.9709 46V48H65.5962L65.9287 46.4091L63.9709 46ZM55.8109 46L53.8541 45.5865L53.3442 48H55.8109V46ZM61.4909 19.12V17.12H59.8694L59.5341 18.7065L61.4909 19.12ZM69.6909 19.12L71.6473 19.5353L72.16 17.12H69.6909V19.12ZM67.3221 37.6562L76.6421 30.3762L74.1798 27.2238L64.8598 34.5038L67.3221 37.6562ZM75.4109 30.8H80.6909V26.8H75.4109V30.8ZM79.4236 27.2528L71.4636 33.7728L73.9983 36.8672L81.9583 30.3472L79.4236 27.2528ZM70.9845 36.2946L76.9445 46.9746L80.4374 45.0254L74.4774 34.3454L70.9845 36.2946ZM78.6909 44H69.7309V48H78.6909V44ZM71.5144 45.0949L67.4344 37.0549L63.8674 38.8651L67.9474 46.9051L71.5144 45.0949ZM63.6932 37.5509L62.0132 45.5909L65.9287 46.4091L67.6087 38.3691L63.6932 37.5509ZM63.9709 44H55.8109V48H63.9709V44ZM57.7677 46.4135L63.4477 19.5335L59.5341 18.7065L53.8541 45.5865L57.7677 46.4135ZM61.4909 21.12H69.6909V17.12H61.4909V21.12ZM67.7345 18.7047L64.1345 35.6647L68.0473 36.4953L71.6473 19.5353L67.7345 18.7047ZM87.7825 37.96V35.96H86.1133L85.8148 37.6022L87.7825 37.96ZM87.5425 39.64L85.5524 39.441L85.5475 39.4905L85.545 39.5401L87.5425 39.64ZM87.7025 42.72L85.7868 43.2947L85.8233 43.4163L85.8749 43.5323L87.7025 42.72ZM88.1025 43.36L86.584 44.6616L86.6841 44.7784L86.8009 44.8785L88.1025 43.36ZM89.6625 43.36L88.7681 41.5711L88.7361 41.5871L88.7048 41.6042L89.6625 43.36ZM90.5825 42.68L89.2311 41.2057L89.199 41.2351L89.1683 41.2658L90.5825 42.68ZM91.4625 41.6L89.8144 40.4669L89.7897 40.5029L89.7665 40.54L91.4625 41.6ZM92.1425 40.16V38.16H90.6544L90.2268 39.5853L92.1425 40.16ZM98.7025 40.16L100.646 40.6322L101.247 38.16H98.7025V40.16ZM97.6625 44.44L98.7525 46.1169L99.4184 45.684L99.6059 44.9122L97.6625 44.44ZM95.8225 45.32L96.4767 47.21L96.4767 47.21L95.8225 45.32ZM93.6225 45.92L93.9623 47.8909L93.9951 47.8853L94.0277 47.8785L93.6225 45.92ZM91.2625 46.2L91.1295 44.2044L91.0964 44.2066L91.0635 44.2099L91.2625 46.2ZM85.2625 45.96L84.8528 47.9176L84.8528 47.9176L85.2625 45.96ZM82.2625 44.72L83.3956 43.0719L83.3956 43.0719L82.2625 44.72ZM80.2225 42.4L78.424 43.2749L78.4384 43.3045L78.4537 43.3335L80.2225 42.4ZM80.1025 34.92L78.2092 34.2755L78.203 34.2936L78.1972 34.3119L80.1025 34.92ZM82.1825 31.6L80.7683 30.1858L80.7683 30.1858L82.1825 31.6ZM86.1025 29.24L85.4337 27.3551L85.424 27.3586L86.1025 29.24ZM98.2625 29.6L97.2086 31.2998L97.2161 31.3045L97.2237 31.309L98.2625 29.6ZM99.9825 35.84L101.919 36.3398L101.921 36.3324L101.923 36.3251L99.9825 35.84ZM99.0225 37.96V39.96H100.041L100.64 39.1363L99.0225 37.96ZM90.5425 31.52L91.7619 33.1052L91.7701 33.099L91.7781 33.0926L90.5425 31.52ZM89.5825 32.64L91.2616 33.7265L91.2756 33.7049L91.2891 33.6829L89.5825 32.64ZM88.7825 34.24L90.6336 34.9973L90.6394 34.9831L90.645 34.9688L88.7825 34.24ZM88.1825 36.12L86.2377 35.6533L85.6457 38.12H88.1825V36.12ZM92.7425 36.12V38.12H94.4368L94.7153 36.4488L92.7425 36.12ZM92.9025 35.12L90.9348 34.7622L90.9299 34.789L90.9258 34.8159L92.9025 35.12ZM93.0225 34.16L91.0458 33.8559L91.0342 33.9309L91.0284 34.0066L93.0225 34.16ZM85.8148 37.6022C85.6996 38.2357 85.6116 38.8489 85.5524 39.441L89.5326 39.839C89.58 39.3644 89.6521 38.8576 89.7502 38.3178L85.8148 37.6022ZM85.545 39.5401C85.5171 40.0989 85.5025 40.613 85.5025 41.08H89.5025C89.5025 40.6937 89.5146 40.2478 89.54 39.7399L85.545 39.5401ZM85.5025 41.08C85.5025 41.3922 85.5198 41.7205 85.5507 42.0611L89.5343 41.6989C89.5119 41.4529 89.5025 41.2478 89.5025 41.08H85.5025ZM85.5507 42.0611C85.5888 42.4802 85.6662 42.8925 85.7868 43.2947L89.6182 42.1453C89.5788 42.0141 89.5495 41.8665 89.5343 41.6989L85.5507 42.0611ZM85.8749 43.5323C86.0549 43.9374 86.2894 44.318 86.584 44.6616L89.621 42.0584C89.5956 42.0287 89.5634 41.9826 89.5301 41.9077L85.8749 43.5323ZM86.8009 44.8785C87.4477 45.4329 88.2117 45.6 88.8625 45.6V41.6C88.8733 41.6 89.1306 41.6071 89.4041 41.8415L86.8009 44.8785ZM88.8625 45.6C89.5427 45.6 90.1423 45.3765 90.6202 45.1158L88.7048 41.6042C88.6566 41.6305 88.645 41.6312 88.6678 41.6243C88.6918 41.6171 88.7596 41.6 88.8625 41.6V45.6ZM90.5569 45.1489C91.0971 44.8788 91.5751 44.5158 91.9967 44.0942L89.1683 41.2658C89.0032 41.4309 88.8679 41.5212 88.7681 41.5711L90.5569 45.1489ZM91.934 44.1543C92.4061 43.7215 92.811 43.216 93.1585 42.66L89.7665 40.54C89.5807 40.8374 89.3989 41.0518 89.2311 41.2057L91.934 44.1543ZM93.1106 42.7331C93.5301 42.1229 93.843 41.4519 94.0582 40.7347L90.2268 39.5853C90.122 39.9347 89.9816 40.2238 89.8144 40.4669L93.1106 42.7331ZM92.1425 42.16H98.7025V38.16H92.1425V42.16ZM96.7591 39.6878L95.7191 43.9678L99.6059 44.9122L100.646 40.6322L96.7591 39.6878ZM96.5725 42.7631C96.1942 43.009 95.7311 43.2352 95.1683 43.43L96.4767 47.21C97.3005 46.9248 98.0642 46.5643 98.7525 46.1169L96.5725 42.7631ZM95.1683 43.43C94.5623 43.6398 93.9126 43.8176 93.2173 43.9615L94.0277 47.8785C94.8791 47.7024 95.6961 47.4802 96.4767 47.21L95.1683 43.43ZM93.2827 43.9491C92.5793 44.0704 91.8617 44.1556 91.1295 44.2044L91.3955 48.1956C92.2633 48.1377 93.1191 48.0363 93.9623 47.8909L93.2827 43.9491ZM91.0635 44.2099C90.3221 44.2841 89.6289 44.32 88.9825 44.32V48.32C89.7761 48.32 90.6029 48.2759 91.4615 48.1901L91.0635 44.2099ZM88.9825 44.32C87.7683 44.32 86.6672 44.2107 85.6722 44.0024L84.8528 47.9176C86.1512 48.1893 87.53 48.32 88.9825 48.32V44.32ZM85.6722 44.0024C84.7509 43.8096 84.0038 43.4901 83.3956 43.0719L81.1294 46.3681C82.2279 47.1232 83.4808 47.6304 84.8528 47.9176L85.6722 44.0024ZM83.3956 43.0719C82.8218 42.6774 82.3545 42.1546 81.9913 41.4665L78.4537 43.3335C79.1039 44.5654 79.9966 45.5892 81.1294 46.3681L83.3956 43.0719ZM82.021 41.5251C81.7083 40.8824 81.5025 39.9877 81.5025 38.76H77.5025C77.5025 40.4123 77.7767 41.9443 78.424 43.2749L82.021 41.5251ZM81.5025 38.76C81.5025 37.6611 81.6701 36.5862 82.0078 35.5281L78.1972 34.3119C77.7349 35.7605 77.5025 37.2455 77.5025 38.76H81.5025ZM81.9958 35.5645C82.3212 34.6086 82.8475 33.7634 83.5967 33.0142L80.7683 30.1858C79.5975 31.3566 78.7371 32.7248 78.2092 34.2755L81.9958 35.5645ZM83.5967 33.0142C84.3319 32.2791 85.3664 31.6316 86.781 31.1214L85.424 27.3586C83.5853 28.0218 82.0065 28.9476 80.7683 30.1858L83.5967 33.0142ZM86.7713 31.1249C88.1431 30.6381 89.9533 30.36 92.2625 30.36V26.36C89.6651 26.36 87.3686 26.6686 85.4337 27.3551L86.7713 31.1249ZM92.2625 30.36C94.7874 30.36 96.3428 30.763 97.2086 31.2998L99.3164 27.9002C97.5155 26.7836 95.071 26.36 92.2625 26.36V30.36ZM97.2237 31.309C97.9148 31.7292 98.3025 32.3298 98.3025 33.48H102.303C102.303 31.1102 101.33 29.1242 99.3013 27.891L97.2237 31.309ZM98.3025 33.48C98.3025 34.0051 98.2243 34.6266 98.0422 35.3549L101.923 36.3251C102.167 35.3467 102.303 34.3949 102.303 33.48H98.3025ZM98.0459 35.3402C97.8846 35.9656 97.66 36.433 97.405 36.7837L100.64 39.1363C101.238 38.3136 101.654 37.3677 101.919 36.3398L98.0459 35.3402ZM99.0225 35.96H87.7825V39.96H99.0225V35.96ZM95.1025 33.2C95.1025 32.6921 95.0628 32.1785 94.9481 31.6968C94.8362 31.2269 94.6227 30.659 94.1824 30.1747L91.2226 32.8653C91.1322 32.7658 91.086 32.6802 91.0666 32.6389C91.0476 32.5983 91.0485 32.588 91.0569 32.6232C91.0755 32.7015 91.1025 32.8812 91.1025 33.2H95.1025ZM94.1824 30.1747C93.5631 29.4934 92.7174 29.08 91.7425 29.08V33.08C91.6593 33.08 91.5463 33.0618 91.4292 33.0081C91.3149 32.9557 91.2479 32.8931 91.2226 32.8653L94.1824 30.1747ZM91.7425 29.08C90.817 29.08 89.9905 29.4102 89.3069 29.9474L91.7781 33.0926C91.7987 33.0765 91.8116 33.0686 91.8165 33.0658C91.8213 33.0631 91.8193 33.0647 91.811 33.0678C91.8025 33.0709 91.7908 33.0743 91.7769 33.0767C91.763 33.0792 91.751 33.08 91.7425 33.08V29.08ZM89.3231 29.9348C88.7354 30.3868 88.2622 30.965 87.8759 31.5971L91.2891 33.6829C91.4895 33.355 91.6562 33.1865 91.7619 33.1052L89.3231 29.9348ZM87.9034 31.5535C87.5232 32.141 87.1987 32.799 86.92 33.5112L90.645 34.9688C90.8463 34.4544 91.0551 34.0457 91.2616 33.7265L87.9034 31.5535ZM86.9314 33.4827C86.6498 34.171 86.4196 34.8955 86.2377 35.6533L90.1273 36.5867C90.2654 36.0112 90.4352 35.4823 90.6336 34.9973L86.9314 33.4827ZM88.1825 38.12H92.7425V34.12H88.1825V38.12ZM94.7153 36.4488C94.7701 36.12 94.8247 35.7784 94.8792 35.4241L90.9258 34.8159C90.8736 35.155 90.8216 35.48 90.7697 35.7912L94.7153 36.4488ZM94.8702 35.4778C94.9377 35.1068 94.9855 34.7177 95.0166 34.3134L91.0284 34.0066C91.0062 34.2957 90.974 34.5465 90.9348 34.7622L94.8702 35.4778ZM94.9992 34.4641C95.0652 34.0356 95.1025 33.6126 95.1025 33.2H91.1025C91.1025 33.3741 91.0865 33.591 91.0458 33.8559L94.9992 34.4641ZM108.698 46V48H110.317L110.654 46.4163L108.698 46ZM100.537 46L98.5807 45.5865L98.0707 48H100.537V46ZM106.217 19.12V17.12H104.596L104.261 18.7065L106.217 19.12ZM114.418 19.12L116.374 19.5363L116.888 17.12H114.418V19.12ZM108.698 44H100.537V48H108.698V44ZM102.494 46.4135L108.174 19.5335L104.261 18.7065L98.5807 45.5865L102.494 46.4135ZM106.217 21.12H114.418V17.12H106.217V21.12ZM112.461 18.7037L106.741 45.5837L110.654 46.4163L116.374 19.5363L112.461 18.7037ZM123.376 31.36V33.36H124.176L124.756 32.8083L123.376 31.36ZM125.256 29.88L124.216 28.1716L124.189 28.1884L124.162 28.2061L125.256 29.88ZM133.616 29.44L132.372 31.0062L132.387 31.0176L132.401 31.0287L133.616 29.44ZM134.856 33.6L136.829 33.9288L136.83 33.9204L136.832 33.9119L134.856 33.6ZM134.216 36.76L132.271 36.2968L132.262 36.3321L132.255 36.3678L134.216 36.76ZM133.936 38.2L135.891 38.6211L135.897 38.5949L135.902 38.5686L133.936 38.2ZM132.256 46V48H133.871L134.211 46.4211L132.256 46ZM124.136 46L122.179 45.5876L121.671 48H124.136V46ZM126.336 35.56L128.293 35.9724L128.305 35.9185L128.313 35.8641L126.336 35.56ZM126.536 34.52L128.485 34.9697L128.489 34.9544L128.492 34.9391L126.536 34.52ZM126.336 32.56L124.698 33.7069L124.764 33.802L124.841 33.8887L126.336 32.56ZM124.056 32.68L122.841 31.0913L122.818 31.1092L122.795 31.1278L124.056 32.68ZM123.056 33.56L121.642 32.1458L121.223 32.5649L121.1 33.1448L123.056 33.56ZM120.416 46V48H122.036L122.373 46.4152L120.416 46ZM112.256 46L110.3 45.5859L109.789 48H112.256V46ZM115.896 28.8V26.8H114.275L113.94 28.3859L115.896 28.8ZM122.416 28.8L124.342 28.2585L123.931 26.8H122.416V28.8ZM123.136 31.36L121.211 31.9015L121.621 33.36H123.136V31.36ZM124.756 32.8083C125.222 32.3643 125.752 31.9455 126.351 31.5539L124.162 28.2061C123.374 28.7211 122.651 29.289 121.997 29.9117L124.756 32.8083ZM126.296 31.5884C126.788 31.2889 127.397 30.9919 128.138 30.7051L126.694 26.9749C125.782 27.3281 124.951 27.7244 124.216 28.1716L126.296 31.5884ZM128.138 30.7051C128.704 30.4861 129.375 30.36 130.176 30.36V26.36C128.951 26.36 127.782 26.5539 126.694 26.9749L128.138 30.7051ZM130.176 30.36C131.204 30.36 131.886 30.6197 132.372 31.0062L134.86 27.8738C133.533 26.8203 131.922 26.36 130.176 26.36V30.36ZM132.401 31.0287C132.772 31.3121 132.976 31.6624 132.976 32.32H136.976C136.976 30.5243 136.274 28.9546 134.831 27.8513L132.401 31.0287ZM132.976 32.32C132.976 32.5255 132.951 32.8406 132.881 33.2881L136.832 33.9119C136.921 33.3461 136.976 32.8078 136.976 32.32H132.976ZM132.883 33.2712C132.807 33.7277 132.718 34.2131 132.615 34.7278L136.537 35.5122C136.648 34.9602 136.745 34.4323 136.829 33.9288L132.883 33.2712ZM132.615 34.7278C132.513 35.236 132.399 35.759 132.271 36.2968L136.162 37.2232C136.3 36.641 136.426 36.0707 136.537 35.5122L132.615 34.7278ZM132.255 36.3678C132.147 36.9071 132.052 37.3952 131.971 37.8314L135.902 38.5686C135.98 38.1515 136.072 37.6796 136.177 37.1522L132.255 36.3678ZM131.981 37.7789L130.301 45.5789L134.211 46.4211L135.891 38.6211L131.981 37.7789ZM132.256 44H124.136V48H132.256V44ZM126.093 46.4124L128.293 35.9724L124.379 35.1476L122.179 45.5876L126.093 46.4124ZM128.313 35.8641C128.359 35.567 128.416 35.2689 128.485 34.9697L124.587 34.0703C124.497 34.4644 124.42 34.8597 124.36 35.2559L128.313 35.8641ZM128.492 34.9391C128.593 34.4668 128.656 33.989 128.656 33.52H124.656C124.656 33.6377 124.639 33.8266 124.581 34.1009L128.492 34.9391ZM128.656 33.52C128.656 32.7552 128.444 31.9211 127.831 31.2313L124.841 33.8887C124.759 33.7961 124.707 33.6962 124.679 33.6125C124.653 33.5347 124.656 33.4961 124.656 33.52H128.656ZM127.975 31.4131C127.326 30.487 126.34 30.16 125.456 30.16V34.16C125.438 34.16 125.317 34.1571 125.149 34.0807C124.966 33.9978 124.807 33.8635 124.698 33.7069L127.975 31.4131ZM125.456 30.16C124.458 30.16 123.575 30.53 122.841 31.0913L125.271 34.2687C125.363 34.1987 125.42 34.1731 125.443 34.1648C125.462 34.1578 125.463 34.16 125.456 34.16V30.16ZM122.795 31.1278C122.343 31.4948 121.951 31.8369 121.642 32.1458L124.47 34.9742C124.642 34.8031 124.916 34.5585 125.317 34.2322L122.795 31.1278ZM121.1 33.1448L118.46 45.5848L122.373 46.4152L125.013 33.9752L121.1 33.1448ZM120.416 44H112.256V48H120.416V44ZM114.213 46.4141L117.853 29.2141L113.94 28.3859L110.3 45.5859L114.213 46.4141ZM115.896 30.8H122.416V26.8H115.896V30.8ZM120.491 29.3415L121.211 31.9015L125.062 30.8185L124.342 28.2585L120.491 29.3415ZM123.136 33.36H123.376V29.36H123.136V33.36ZM155.614 30.04L154.386 31.6187L154.392 31.6232L155.614 30.04ZM157.054 40.44L158.898 41.2145L158.903 41.2015L157.054 40.44ZM154.694 43.76L155.982 45.2898L155.994 45.28L156.005 45.2701L154.694 43.76ZM138.854 44.44L140.181 42.9436L140.169 42.9334L140.158 42.9234L138.854 44.44ZM137.614 33.84L135.832 32.9321L135.825 32.9456L135.818 32.9591L137.614 33.84ZM140.694 30.32L139.579 28.6594L139.563 28.6703L139.547 28.6815L140.694 30.32ZM147.694 42.48L146.039 41.357L146.025 41.3776L146.011 41.3985L147.694 42.48ZM148.894 39.76L150.822 40.2903L150.825 40.2783L148.894 39.76ZM149.534 36.4L147.552 36.1298L147.549 36.1494L147.547 36.169L149.534 36.4ZM149.534 31.68L147.636 32.3125L147.663 32.3914L147.695 32.4678L149.534 31.68ZM146.734 32.24L145.087 31.1045L145.074 31.1241L145.061 31.1439L146.734 32.24ZM145.494 35L147.409 35.5747L147.409 35.5747L145.494 35ZM144.774 38.28L142.794 37.9972L142.791 38.0203L142.788 38.0436L144.774 38.28ZM148.694 30.36C151.717 30.36 153.475 30.9099 154.386 31.6187L156.842 28.4613C154.873 26.9301 152.017 26.36 148.694 26.36V30.36ZM154.392 31.6232C155.24 32.2778 155.894 33.5074 155.894 35.88H159.894C159.894 32.8126 159.028 30.1489 156.836 28.4568L154.392 31.6232ZM155.894 35.88C155.894 37.3357 155.652 38.592 155.204 39.6785L158.903 41.2015C159.576 39.568 159.894 37.7843 159.894 35.88H155.894ZM155.21 39.6655C154.759 40.7384 154.146 41.5864 153.382 42.2499L156.005 45.2701C157.268 44.1736 158.228 42.8082 158.898 41.2145L155.21 39.6655ZM153.405 42.2302C151.871 43.5222 149.469 44.32 145.894 44.32V48.32C149.998 48.32 153.463 47.4111 155.982 45.2898L153.405 42.2302ZM145.894 44.32C142.774 44.32 141.04 43.706 140.181 42.9436L137.527 45.9364C139.494 47.6806 142.453 48.32 145.894 48.32V44.32ZM140.158 42.9234C139.205 42.1046 138.574 40.7795 138.574 38.56H134.574C134.574 41.5672 135.462 44.1621 137.55 45.9566L140.158 42.9234ZM138.574 38.56C138.574 37.1007 138.864 35.8332 139.409 34.7208L135.818 32.9591C134.977 34.6734 134.574 36.5526 134.574 38.56H138.574ZM139.396 34.7479C139.963 33.6342 140.768 32.709 141.841 31.9585L139.547 28.6815C137.952 29.7976 136.704 31.2191 135.832 32.9321L139.396 34.7479ZM141.808 31.9806C143.309 30.9733 145.536 30.36 148.694 30.36V26.36C145.078 26.36 141.972 27.0534 139.579 28.6594L141.808 31.9806ZM145.974 45.6C147.539 45.6 148.664 44.6688 149.376 43.5615L146.011 41.3985C145.881 41.6019 145.803 41.6501 145.812 41.644C145.819 41.6395 145.843 41.6261 145.88 41.6149C145.917 41.6036 145.951 41.6 145.974 41.6V45.6ZM149.349 43.603C150.003 42.6394 150.483 41.5222 150.822 40.2903L146.965 39.2297C146.717 40.1311 146.398 40.8272 146.039 41.357L149.349 43.603ZM150.825 40.2783C151.145 39.0888 151.376 37.8727 151.52 36.631L147.547 36.169C147.425 37.2206 147.23 38.2445 146.962 39.2417L150.825 40.2783ZM151.515 36.6702C151.683 35.4389 151.774 34.3308 151.774 33.36H147.774C147.774 34.0959 147.704 35.0144 147.552 36.1298L151.515 36.6702ZM151.774 33.36C151.774 32.5315 151.694 31.6435 151.372 30.8922L147.695 32.4678C147.685 32.4439 147.71 32.4941 147.734 32.6628C147.757 32.825 147.774 33.0533 147.774 33.36H151.774ZM151.431 31.0475C151.244 30.4872 150.884 29.9381 150.296 29.5548C149.731 29.1862 149.123 29.08 148.614 29.08V33.08C148.584 33.08 148.37 33.0738 148.111 32.9052C147.83 32.7219 147.69 32.4728 147.636 32.3125L151.431 31.0475ZM148.614 29.08C147.041 29.08 145.868 29.973 145.087 31.1045L148.38 33.3755C148.531 33.1564 148.632 33.0857 148.654 33.0721C148.663 33.0663 148.659 33.0703 148.643 33.0748C148.636 33.0769 148.629 33.0783 148.623 33.0791C148.617 33.08 148.614 33.08 148.614 33.08V29.08ZM145.061 31.1439C144.43 32.1074 143.943 33.2105 143.578 34.4253L147.409 35.5747C147.685 34.6562 148.025 33.9192 148.407 33.3361L145.061 31.1439ZM143.578 34.4253C143.229 35.589 142.968 36.78 142.794 37.9972L146.754 38.5628C146.9 37.54 147.119 36.5443 147.409 35.5747L143.578 34.4253ZM142.788 38.0436C142.65 39.2 142.574 40.1944 142.574 41H146.574C146.574 40.419 146.631 39.6 146.76 38.5164L142.788 38.0436ZM142.574 41C142.574 41.9808 142.695 43.0287 143.163 43.8982C143.413 44.3629 143.782 44.8122 144.309 45.138C144.84 45.4673 145.419 45.6 145.974 45.6V41.6C146.061 41.6 146.232 41.6243 146.414 41.737C146.59 41.8461 146.668 41.9704 146.685 42.0018C146.696 42.0225 146.663 41.9675 146.63 41.7842C146.598 41.6053 146.574 41.3492 146.574 41H142.574ZM169.822 31.36V33.36H170.622L171.201 32.8083L169.822 31.36ZM171.702 29.88L170.662 28.1716L170.634 28.1884L170.607 28.2061L171.702 29.88ZM173.902 28.84L173.199 26.9673L173.199 26.9673L173.902 28.84ZM179.622 29.24L178.239 30.6853L178.254 30.7L178.27 30.7143L179.622 29.24ZM180.702 31.4L178.71 31.5867L178.88 33.4H180.702V31.4ZM180.942 31.4V33.4H181.717L182.29 32.877L180.942 31.4ZM182.942 29.88L181.902 28.1716L181.889 28.1795L181.876 28.1875L182.942 29.88ZM191.102 29.52L189.759 31.002L189.783 31.0239L189.808 31.045L191.102 29.52ZM192.102 34.88L190.144 34.468L190.144 34.468L192.102 34.88ZM191.382 38.2L189.429 37.7661L189.426 37.7789L191.382 38.2ZM189.702 46V48H191.317L191.657 46.4211L189.702 46ZM181.822 46L179.863 45.5948L179.365 48H181.822V46ZM183.982 35.56L185.94 35.9652L185.943 35.9522L183.982 35.56ZM184.022 32.56L182.46 33.8094L182.492 33.8499L182.527 33.8887L184.022 32.56ZM181.662 32.72L182.923 34.2723L182.933 34.2639L181.662 32.72ZM180.662 33.6L179.247 32.1858L178.826 32.6068L178.704 33.1896L180.662 33.6ZM178.062 46V48H179.686L180.019 46.4104L178.062 46ZM170.582 46L168.625 45.5876L168.116 48H170.582V46ZM172.782 35.56L174.739 35.9724L174.75 35.9185L174.758 35.8641L172.782 35.56ZM172.982 34.52L174.93 34.9697L174.934 34.9544L174.937 34.9391L172.982 34.52ZM172.782 32.56L171.143 33.7069L171.21 33.802L171.287 33.8887L172.782 32.56ZM170.502 32.68L169.287 31.0913L169.263 31.1092L169.24 31.1278L170.502 32.68ZM169.502 33.56L168.087 32.1458L167.668 32.5649L167.545 33.1448L169.502 33.56ZM166.862 46V48H168.482L168.818 46.4152L166.862 46ZM158.702 46L156.745 45.5859L156.234 48H158.702V46ZM162.342 28.8V26.8H160.721L160.385 28.3859L162.342 28.8ZM168.862 28.8L170.787 28.2585L170.377 26.8H168.862V28.8ZM169.582 31.36L167.656 31.9015L168.066 33.36H169.582V31.36ZM171.201 32.8083C171.667 32.3643 172.197 31.9455 172.796 31.5539L170.607 28.2061C169.819 28.7211 169.096 29.289 168.442 29.9117L171.201 32.8083ZM172.741 31.5884C173.224 31.2949 173.838 30.9998 174.604 30.7127L173.199 26.9673C172.258 27.3202 171.406 27.7184 170.662 28.1716L172.741 31.5884ZM174.604 30.7127C175.198 30.4899 175.915 30.36 176.782 30.36V26.36C175.515 26.36 174.312 26.5501 173.199 26.9673L174.604 30.7127ZM176.782 30.36C177.803 30.36 178.149 30.5993 178.239 30.6853L181.004 27.7947C179.867 26.7074 178.32 26.36 176.782 26.36V30.36ZM178.27 30.7143C178.55 30.9707 178.677 31.2341 178.71 31.5867L182.693 31.2133C182.566 29.8593 181.973 28.6826 180.973 27.7657L178.27 30.7143ZM180.702 33.4H180.942V29.4H180.702V33.4ZM182.29 32.877C182.814 32.399 183.385 31.9641 184.007 31.5725L181.876 28.1875C181.058 28.7026 180.296 29.281 179.593 29.923L182.29 32.877ZM183.981 31.5884C184.473 31.2889 185.083 30.9919 185.824 30.7051L184.38 26.9749C183.467 27.3281 182.636 27.7244 181.902 28.1716L183.981 31.5884ZM185.824 30.7051C186.408 30.4789 187.042 30.36 187.742 30.36V26.36C186.575 26.36 185.449 26.5611 184.38 26.9749L185.824 30.7051ZM187.742 30.36C188.739 30.36 189.345 30.6274 189.759 31.002L192.445 28.038C191.151 26.866 189.518 26.36 187.742 26.36V30.36ZM189.808 31.045C190.22 31.3947 190.422 31.8006 190.422 32.44H194.422C194.422 30.6794 193.743 29.1387 192.396 27.995L189.808 31.045ZM190.422 32.44C190.422 32.8526 190.346 33.5113 190.144 34.468L194.059 35.292C194.284 34.2221 194.422 33.2541 194.422 32.44H190.422ZM190.144 34.468C189.933 35.4728 189.695 36.5721 189.429 37.7661L193.334 38.6339C193.602 37.4279 193.844 36.3138 194.059 35.292L190.144 34.468ZM189.426 37.7789L187.746 45.5789L191.657 46.4211L193.337 38.6211L189.426 37.7789ZM189.702 44H181.822V48H189.702V44ZM183.78 46.4052L185.94 35.9652L182.023 35.1548L179.863 45.5948L183.78 46.4052ZM185.943 35.9522C186.021 35.5606 186.099 35.1829 186.177 34.8191L182.266 33.9809C182.184 34.3638 182.102 34.7594 182.02 35.1678L185.943 35.9522ZM186.177 34.8191C186.272 34.3785 186.342 33.9182 186.342 33.48H182.342C182.342 33.5218 182.332 33.6748 182.266 33.9809L186.177 34.8191ZM186.342 33.48C186.342 32.7014 186.107 31.896 185.516 31.2313L182.527 33.8887C182.457 33.8106 182.404 33.7184 182.373 33.627C182.342 33.5401 182.342 33.4841 182.342 33.48H186.342ZM185.583 31.3106C184.923 30.4854 183.993 30.16 183.102 30.16V34.16C183.08 34.16 182.977 34.1561 182.834 34.0941C182.682 34.0282 182.552 33.9247 182.46 33.8094L185.583 31.3106ZM183.102 30.16C182.059 30.16 181.142 30.5573 180.39 31.1761L182.933 34.2639C183.018 34.1936 183.07 34.1704 183.086 34.164C183.099 34.159 183.1 34.16 183.102 34.16V30.16ZM180.4 31.1678C179.949 31.5348 179.556 31.8769 179.247 32.1858L182.076 35.0142C182.247 34.8431 182.521 34.5985 182.923 34.2722L180.4 31.1678ZM178.704 33.1896L176.104 45.5896L180.019 46.4104L182.619 34.0104L178.704 33.1896ZM178.062 44H170.582V48H178.062V44ZM172.539 46.4124L174.739 35.9724L170.825 35.1476L168.625 45.5876L172.539 46.4124ZM174.758 35.8641C174.804 35.567 174.861 35.2689 174.93 34.9697L171.033 34.0703C170.942 34.4644 170.866 34.8597 170.805 35.2559L174.758 35.8641ZM174.937 34.9391C175.038 34.4668 175.102 33.989 175.102 33.52H171.102C171.102 33.6377 171.085 33.8266 171.026 34.1009L174.937 34.9391ZM175.102 33.52C175.102 32.7552 174.89 31.9211 174.276 31.2313L171.287 33.8887C171.204 33.7961 171.152 33.6962 171.124 33.6125C171.098 33.5347 171.102 33.4961 171.102 33.52H175.102ZM174.42 31.4131C173.772 30.487 172.785 30.16 171.902 30.16V34.16C171.883 34.16 171.762 34.1571 171.594 34.0807C171.411 33.9978 171.253 33.8635 171.143 33.7069L174.42 31.4131ZM171.902 30.16C170.904 30.16 170.021 30.53 169.287 31.0913L171.716 34.2687C171.808 34.1987 171.866 34.1731 171.888 34.1648C171.907 34.1578 171.908 34.16 171.902 34.16V30.16ZM169.24 31.1278C168.789 31.4948 168.396 31.8369 168.087 32.1458L170.916 34.9742C171.087 34.8031 171.361 34.5585 171.763 34.2322L169.24 31.1278ZM167.545 33.1448L164.905 45.5848L168.818 46.4152L171.458 33.9752L167.545 33.1448ZM166.862 44H158.702V48H166.862V44ZM160.658 46.4141L164.298 29.2141L160.385 28.3859L156.745 45.5859L160.658 46.4141ZM162.342 30.8H168.862V26.8H162.342V30.8ZM166.936 29.3415L167.656 31.9015L171.507 30.8185L170.787 28.2585L166.936 29.3415ZM169.582 33.36H169.822V29.36H169.582V33.36ZM196.435 30.28L195.554 28.4842L194.682 28.912L194.479 29.8624L196.435 30.28ZM200.595 28.84L201.001 30.7983L201.015 30.7954L201.029 30.7924L200.595 28.84ZM209.635 28.76L209.171 30.7056L209.171 30.7056L209.635 28.76ZM212.315 29.92L211.105 31.5123L211.105 31.5123L212.315 29.92ZM213.995 35.72L212.013 35.4498L212.007 35.4942L212.003 35.5389L213.995 35.72ZM213.795 37.2L215.751 37.6178L215.753 37.6051L215.756 37.5922L213.795 37.2ZM211.915 46V48H213.533L213.871 46.4178L211.915 46ZM205.475 46L203.549 46.5415L203.96 48H205.475V46ZM204.755 43.44L206.68 42.8985L206.27 41.44H204.755V43.44ZM204.515 43.44V41.44H203.633L203.039 42.0905L204.515 43.44ZM201.515 45.6L202.303 47.4383L202.313 47.4339L202.323 47.4294L201.515 45.6ZM196.275 46.04L196.857 44.1267L196.275 46.04ZM194.635 45.2L193.354 46.7364L193.38 46.758L193.407 46.7787L194.635 45.2ZM193.475 43.72L191.67 44.5829L191.678 44.5987L191.686 44.6144L193.475 43.72ZM194.155 38.24L192.694 36.8737L192.693 36.8754L194.155 38.24ZM197.155 36.4L197.775 38.3015L197.787 38.2975L197.799 38.2933L197.155 36.4ZM201.355 35.6L201.219 33.6046L201.217 33.6047L201.355 35.6ZM206.075 35.44V37.44H207.714L208.036 35.8322L206.075 35.44ZM206.275 34.32L208.247 34.6488L208.249 34.6404L208.25 34.6319L206.275 34.32ZM205.995 31.68L204.252 32.6605L204.289 32.7265L204.331 32.7894L205.995 31.68ZM202.355 31.88L200.8 30.6216L200.793 30.6306L202.355 31.88ZM201.515 33.84V35.84H203.199L203.486 34.1798L201.515 33.84ZM195.675 33.84L193.719 33.4224L193.203 35.84H195.675V33.84ZM205.635 37.32L207.593 37.7269L208.093 35.32H205.635V37.32ZM202.915 37.64L203.575 39.5277L203.601 39.5187L203.627 39.509L202.915 37.64ZM201.595 38.4L200.238 36.9304L200.209 36.9575L200.18 36.9858L201.595 38.4ZM200.875 39.48L202.732 40.2228L202.732 40.2228L200.875 39.48ZM201.115 42.12L199.7 43.5342L199.729 43.5625L199.758 43.5896L201.115 42.12ZM203.955 42L202.792 40.3725L202.773 40.386L202.755 40.4L203.955 42ZM204.995 40.4L203.037 39.9931L203.035 40.0004L203.034 40.0078L204.995 40.4ZM197.315 32.0758C198.532 31.4793 199.76 31.0559 201.001 30.7983L200.188 26.8817C198.603 27.2108 197.057 27.7473 195.554 28.4842L197.315 32.0758ZM201.029 30.7924C202.302 30.5094 203.754 30.36 205.395 30.36V26.36C203.516 26.36 201.767 26.5306 200.161 26.8876L201.029 30.7924ZM205.395 30.36C207.013 30.36 208.257 30.4879 209.171 30.7056L210.098 26.8144C208.772 26.4988 207.19 26.36 205.395 26.36V30.36ZM209.171 30.7056C210.116 30.9305 210.726 31.2247 211.105 31.5123L213.525 28.3277C212.57 27.6019 211.393 27.1229 210.098 26.8144L209.171 30.7056ZM211.105 31.5123C211.514 31.8235 211.731 32.1341 211.848 32.438L215.581 31.002C215.165 29.9193 214.449 29.0298 213.525 28.3277L211.105 31.5123ZM211.848 32.438C212.012 32.8641 212.115 33.4011 212.115 34.08H216.115C216.115 32.9989 215.951 31.9625 215.581 31.002L211.848 32.438ZM212.115 34.08C212.115 34.4827 212.083 34.9381 212.013 35.4498L215.976 35.9902C216.067 35.3285 216.115 34.6906 216.115 34.08H212.115ZM212.003 35.5389C211.953 36.0829 211.895 36.5007 211.834 36.8078L215.756 37.5922C215.854 37.0993 215.929 36.5305 215.986 35.9011L212.003 35.5389ZM211.839 36.7822L209.959 45.5822L213.871 46.4178L215.751 37.6178L211.839 36.7822ZM211.915 44H205.475V48H211.915V44ZM207.4 45.4585L206.68 42.8985L202.829 43.9815L203.549 46.5415L207.4 45.4585ZM204.755 41.44H204.515V45.44H204.755V41.44ZM203.039 42.0905C202.371 42.8212 201.597 43.3769 200.706 43.7706L202.323 47.4294C203.725 46.8097 204.952 45.9255 205.991 44.7895L203.039 42.0905ZM200.727 43.7617C199.834 44.1445 198.981 44.32 198.155 44.32V48.32C199.569 48.32 200.956 48.0155 202.303 47.4383L200.727 43.7617ZM198.155 44.32C197.712 44.32 197.282 44.256 196.857 44.1267L195.692 47.9533C196.494 48.1974 197.317 48.32 198.155 48.32V44.32ZM196.857 44.1267C196.465 44.0072 196.139 43.8365 195.863 43.6213L193.407 46.7787C194.09 47.3101 194.858 47.6994 195.692 47.9533L196.857 44.1267ZM195.915 43.6636C195.658 43.4489 195.44 43.178 195.264 42.8256L191.686 44.6144C192.096 45.4354 192.652 46.1511 193.354 46.7364L195.915 43.6636ZM195.279 42.8571C195.143 42.5729 195.035 42.1488 195.035 41.52H191.035C191.035 42.5979 191.22 43.6405 191.67 44.5829L195.279 42.8571ZM195.035 41.52C195.035 40.4991 195.301 39.9428 195.617 39.6046L192.693 36.8754C191.515 38.1372 191.035 39.7676 191.035 41.52H195.035ZM195.615 39.6063C196.127 39.0588 196.823 38.6117 197.775 38.3015L196.535 34.4985C195.033 34.9883 193.729 35.7679 192.694 36.8737L195.615 39.6063ZM197.799 38.2933C198.864 37.931 200.09 37.692 201.492 37.5953L201.217 33.6047C199.526 33.7213 197.952 34.0157 196.51 34.5067L197.799 38.2933ZM201.49 37.5954C203.018 37.4918 204.547 37.44 206.075 37.44V33.44C204.456 33.44 202.838 33.4949 201.219 33.6046L201.49 37.5954ZM208.036 35.8322C208.095 35.5342 208.166 35.1363 208.247 34.6488L204.302 33.9912C204.223 34.4637 204.161 34.8124 204.114 35.0478L208.036 35.8322ZM208.25 34.6319C208.341 34.0573 208.395 33.5082 208.395 33H204.395C204.395 33.2384 204.368 33.5694 204.299 34.0081L208.25 34.6319ZM208.395 33C208.395 32.1245 208.144 31.2986 207.659 30.5706L204.331 32.7894C204.379 32.8614 204.395 32.9155 204.395 33H208.395ZM207.738 30.6995C206.958 29.3126 205.475 29.04 204.435 29.04V33.04C204.548 33.04 204.622 33.0477 204.663 33.0544C204.705 33.0611 204.701 33.0647 204.666 33.0503C204.628 33.0351 204.557 32.9997 204.474 32.9298C204.388 32.8578 204.311 32.7659 204.252 32.6605L207.738 30.6995ZM204.435 29.04C203.091 29.04 201.74 29.4608 200.8 30.6216L203.909 33.1384C203.914 33.1324 203.919 33.1224 203.964 33.1045C204.021 33.0812 204.163 33.04 204.435 33.04V29.04ZM200.793 30.6306C200.126 31.4648 199.726 32.4441 199.544 33.5002L203.486 34.1798C203.57 33.6893 203.73 33.3619 203.916 33.1294L200.793 30.6306ZM201.515 31.84H195.675V35.84H201.515V31.84ZM197.631 34.2576L198.391 30.6976L194.479 29.8624L193.719 33.4224L197.631 34.2576ZM205.635 35.32H204.915V39.32H205.635V35.32ZM204.915 35.32C203.965 35.32 203.045 35.45 202.203 35.771L203.627 39.509C203.904 39.4034 204.317 39.32 204.915 39.32V35.32ZM202.254 35.7523C201.513 36.0118 200.821 36.392 200.238 36.9304L202.951 39.8696C203.061 39.768 203.25 39.6416 203.575 39.5277L202.254 35.7523ZM200.18 36.9858C199.679 37.4875 199.283 38.0731 199.018 38.7372L202.732 40.2228C202.786 40.0869 202.871 39.9525 203.009 39.8142L200.18 36.9858ZM199.018 38.7372C198.771 39.3551 198.635 40.0065 198.635 40.68H202.635C202.635 40.5535 202.659 40.4049 202.732 40.2228L199.018 38.7372ZM198.635 40.68C198.635 41.6283 198.873 42.7069 199.7 43.5342L202.529 40.7058C202.568 40.7449 202.598 40.7851 202.62 40.821C202.641 40.8562 202.65 40.8807 202.652 40.8875C202.654 40.8938 202.65 40.8821 202.645 40.8472C202.64 40.8121 202.635 40.7574 202.635 40.68H198.635ZM199.758 43.5896C200.458 44.2353 201.336 44.6 202.315 44.6V40.6C202.329 40.6 202.369 40.6037 202.417 40.623C202.465 40.6419 202.482 40.6607 202.471 40.6504L199.758 43.5896ZM202.315 44.6C203.385 44.6 204.343 44.2087 205.155 43.6L202.755 40.4C202.5 40.5913 202.364 40.6 202.315 40.6V44.6ZM205.117 43.6275C206.085 42.9361 206.722 41.9639 206.956 40.7922L203.034 40.0078C203.001 40.1694 202.944 40.2639 202.792 40.3725L205.117 43.6275ZM206.953 40.8069L207.593 37.7269L203.677 36.9131L203.037 39.9931L206.953 40.8069ZM232.265 19.12V17.12H230.644L230.308 18.7057L232.265 19.12ZM240.465 19.12L242.421 19.5363L242.935 17.12H240.465V19.12ZM234.745 46V48H236.364L236.701 46.4163L234.745 46ZM228.265 46L226.34 46.5415L226.75 48H228.265V46ZM227.545 43.44L229.47 42.8985L229.06 41.44H227.545V43.44ZM227.265 43.44V41.44H226.195L225.601 42.3306L227.265 43.44ZM226.505 44.32L225.091 42.9058L225.091 42.9058L226.505 44.32ZM225.265 45.28L226.267 47.0109L226.3 46.9915L226.333 46.971L225.265 45.28ZM223.465 46L222.945 44.0688L222.911 44.078L222.877 44.0884L223.465 46ZM218.665 45.92L217.832 47.7381L217.876 47.7587L217.922 47.777L218.665 45.92ZM217.065 44.76L215.529 46.0404L215.549 46.0649L215.57 46.0887L217.065 44.76ZM216.185 43.04L214.254 43.5599L214.256 43.5696L214.259 43.5793L216.185 43.04ZM215.985 39.16L217.98 39.3025L217.98 39.2976L215.985 39.16ZM216.345 36.64L214.395 36.1944L214.39 36.2155L214.386 36.2367L216.345 36.64ZM217.225 33.8L215.372 33.0486L215.366 33.0618L215.361 33.0751L217.225 33.8ZM218.785 31.12L217.249 29.8396L217.236 29.855L217.223 29.8706L218.785 31.12ZM221.225 29.16L222.159 30.9288L222.178 30.9187L222.196 30.9083L221.225 29.16ZM226.065 28.48L225.736 30.4528L225.736 30.4528L226.065 28.48ZM227.425 28.92L226.531 30.7089L226.552 30.7195L226.573 30.7296L227.425 28.92ZM228.625 29.84L227.114 31.1499L227.114 31.1499L228.625 29.84ZM229.385 31.4L227.445 31.8851L227.823 33.4H229.385V31.4ZM229.665 31.4V33.4H231.286L231.622 31.8143L229.665 31.4ZM225.785 33.36L227.488 34.4082L227.497 34.394L227.506 34.3796L225.785 33.36ZM224.745 35.8L226.668 36.3494L226.668 36.3494L224.745 35.8ZM224.145 38.6L222.165 38.3172L222.161 38.345L222.158 38.3729L224.145 38.6ZM224.225 42.04L222.387 42.8278L222.398 42.8531L222.409 42.8781L224.225 42.04ZM225.905 42.4L226.717 44.2276L226.759 44.2092L226.799 44.1889L225.905 42.4ZM226.625 41.96L227.825 43.56L227.839 43.5495L227.853 43.5387L226.625 41.96ZM227.225 41.4L228.744 42.7016L228.744 42.7016L227.225 41.4ZM227.625 40.92L229.187 42.1694L229.482 41.8007L229.581 41.3391L227.625 40.92ZM229.185 33.64L231.141 34.0591L231.312 33.2577L230.872 32.5662L229.185 33.64ZM228.425 32.76L226.951 34.1114L227.009 34.1755L227.074 34.2343L228.425 32.76ZM232.265 21.12H240.465V17.12H232.265V21.12ZM238.509 18.7037L232.789 45.5837L236.701 46.4163L242.421 19.5363L238.509 18.7037ZM234.745 44H228.265V48H234.745V44ZM230.19 45.4585L229.47 42.8985L225.62 43.9815L226.34 46.5415L230.19 45.4585ZM227.545 41.44H227.265V45.44H227.545V41.44ZM225.601 42.3306C225.547 42.4112 225.399 42.5973 225.091 42.9058L227.919 45.7342C228.304 45.3493 228.663 44.9488 228.929 44.5494L225.601 42.3306ZM225.091 42.9058C224.903 43.0935 224.616 43.3243 224.197 43.589L226.333 46.971C226.927 46.5957 227.467 46.1865 227.919 45.7342L225.091 42.9058ZM224.263 43.5491C223.937 43.7378 223.506 43.9177 222.945 44.0688L223.985 47.9312C224.811 47.709 225.58 47.4089 226.267 47.0109L224.263 43.5491ZM222.877 44.0884C222.415 44.2306 221.82 44.32 221.065 44.32V48.32C222.124 48.32 223.129 48.196 224.053 47.9116L222.877 44.0884ZM221.065 44.32C220.313 44.32 219.779 44.2116 219.408 44.063L217.922 47.777C218.884 48.1618 219.95 48.32 221.065 48.32V44.32ZM219.498 44.1019C219.086 43.9128 218.785 43.6848 218.56 43.4313L215.57 46.0887C216.198 46.7952 216.964 47.3405 217.832 47.7381L219.498 44.1019ZM218.601 43.4796C218.401 43.2388 218.23 42.9252 218.111 42.5007L214.259 43.5793C214.514 44.4881 214.929 45.3212 215.529 46.0404L218.601 43.4796ZM218.116 42.5201C217.98 42.0143 217.905 41.4441 217.905 40.8H213.905C213.905 41.7559 214.017 42.679 214.254 43.5599L218.116 42.5201ZM217.905 40.8C217.905 40.5294 217.927 40.043 217.98 39.3025L213.99 39.0175C213.936 39.7704 213.905 40.3773 213.905 40.8H217.905ZM217.98 39.2976C218.026 38.6287 218.132 37.8786 218.304 37.0433L214.386 36.2367C214.185 37.2148 214.05 38.1446 213.99 39.0224L217.98 39.2976ZM218.295 37.0856C218.485 36.2542 218.748 35.4008 219.089 34.5249L215.361 33.0751C214.955 34.1192 214.632 35.1591 214.395 36.1944L218.295 37.0856ZM219.078 34.5514C219.409 33.7369 219.832 33.0125 220.347 32.3694L217.223 29.8706C216.458 30.8275 215.841 31.8898 215.372 33.0486L219.078 34.5514ZM220.321 32.4004C220.814 31.8094 221.419 31.3188 222.159 30.9288L220.291 27.3912C219.111 28.0145 218.089 28.8306 217.249 29.8396L220.321 32.4004ZM222.196 30.9083C222.796 30.575 223.605 30.36 224.705 30.36V26.36C223.085 26.36 221.574 26.6783 220.254 27.4117L222.196 30.9083ZM224.705 30.36C225.007 30.36 225.35 30.3884 225.736 30.4528L226.394 26.5072C225.82 26.4116 225.256 26.36 224.705 26.36V30.36ZM225.736 30.4528C226.024 30.5007 226.286 30.5865 226.531 30.7089L228.319 27.1311C227.711 26.8269 227.066 26.6193 226.394 26.5072L225.736 30.4528ZM226.573 30.7296C226.76 30.8176 226.939 30.9485 227.114 31.1499L230.136 28.5301C229.618 27.9315 228.996 27.4491 228.277 27.1104L226.573 30.7296ZM227.114 31.1499C227.21 31.2611 227.343 31.4764 227.445 31.8851L231.325 30.9149C231.107 30.0436 230.733 29.2189 230.136 28.5301L227.114 31.1499ZM229.385 33.4H229.665V29.4H229.385V33.4ZM231.622 31.8143L234.222 19.5343L230.308 18.7057L227.708 30.9857L231.622 31.8143ZM227.385 30.28C225.822 30.28 224.725 31.226 224.064 32.3404L227.506 34.3796C227.612 34.2007 227.665 34.1802 227.624 34.2077C227.601 34.2229 227.563 34.2438 227.512 34.2595C227.46 34.2753 227.415 34.28 227.385 34.28V30.28ZM224.082 32.3118C223.543 33.187 223.129 34.1743 222.822 35.2506L226.668 36.3494C226.894 35.559 227.174 34.9196 227.488 34.4082L224.082 32.3118ZM222.822 35.2506C222.531 36.2688 222.312 37.2912 222.165 38.3172L226.125 38.8828C226.245 38.0422 226.426 37.1979 226.668 36.3494L222.822 35.2506ZM222.158 38.3729C222.05 39.3197 221.985 40.107 221.985 40.68H225.985C225.985 40.3464 226.027 39.747 226.132 38.8271L222.158 38.3729ZM221.985 40.68C221.985 41.4035 222.092 42.1408 222.387 42.8278L226.063 41.2522C226.038 41.1926 225.985 41.0232 225.985 40.68H221.985ZM222.409 42.8781C222.649 43.3985 223.041 43.8606 223.591 44.1711C224.119 44.4694 224.67 44.56 225.145 44.56V40.56C225.167 40.56 225.338 40.5639 225.559 40.6889C225.802 40.8261 225.961 41.0281 226.041 41.2019L222.409 42.8781ZM225.145 44.56C225.687 44.56 226.218 44.4497 226.717 44.2276L225.093 40.5724C225.099 40.5694 225.11 40.5656 225.123 40.5629C225.129 40.5616 225.134 40.5609 225.138 40.5604C225.14 40.5602 225.142 40.5601 225.143 40.5601C225.144 40.56 225.144 40.56 225.145 40.56C225.145 40.56 225.145 40.56 225.145 40.56C225.145 40.56 225.145 40.56 225.145 40.56C225.145 40.56 225.145 40.56 225.145 40.56C225.145 40.56 225.145 40.56 225.145 40.56C225.145 40.56 225.145 40.56 225.145 40.56V44.56ZM226.799 44.1889C227.161 44.008 227.505 43.7998 227.825 43.56L225.425 40.36C225.318 40.4402 225.182 40.5253 225.011 40.6111L226.799 44.1889ZM227.853 43.5387C228.175 43.2881 228.479 43.0107 228.744 42.7016L225.706 40.0984C225.651 40.1626 225.555 40.2585 225.397 40.3813L227.853 43.5387ZM228.744 42.7016C228.912 42.5045 229.061 42.3262 229.187 42.1694L226.063 39.6706C225.975 39.7805 225.858 39.9222 225.706 40.0984L228.744 42.7016ZM229.581 41.3391L231.141 34.0591L227.229 33.2209L225.669 40.5009L229.581 41.3391ZM230.872 32.5662C230.572 32.094 230.195 31.6693 229.776 31.2857L227.074 34.2343C227.295 34.4373 227.425 34.5993 227.498 34.7137L230.872 32.5662ZM229.899 31.4085C229.263 30.7147 228.397 30.28 227.385 30.28V34.28C227.31 34.28 227.209 34.263 227.107 34.2159C227.009 34.1706 226.959 34.1203 226.951 34.1114L229.899 31.4085ZM247.431 37.96V35.96H245.762L245.463 37.6022L247.431 37.96ZM247.191 39.64L245.201 39.441L245.196 39.4905L245.193 39.5401L247.191 39.64ZM247.351 42.72L245.435 43.2947L245.472 43.4163L245.523 43.5323L247.351 42.72ZM247.751 43.36L246.232 44.6616L246.333 44.7784L246.449 44.8785L247.751 43.36ZM249.311 43.36L248.417 41.5711L248.385 41.5871L248.353 41.6042L249.311 43.36ZM250.231 42.68L248.879 41.2057L248.847 41.2351L248.817 41.2658L250.231 42.68ZM251.111 41.6L249.463 40.4669L249.438 40.5029L249.415 40.54L251.111 41.6ZM251.791 40.16V38.16H250.303L249.875 39.5853L251.791 40.16ZM258.351 40.16L260.294 40.6322L260.895 38.16H258.351V40.16ZM257.311 44.44L258.401 46.1169L259.067 45.684L259.254 44.9122L257.311 44.44ZM255.471 45.32L256.125 47.21L256.125 47.21L255.471 45.32ZM253.271 45.92L253.611 47.8909L253.644 47.8853L253.676 47.8785L253.271 45.92ZM250.911 46.2L250.778 44.2044L250.745 44.2066L250.712 44.2099L250.911 46.2ZM244.911 45.96L244.501 47.9176L244.501 47.9176L244.911 45.96ZM241.911 44.72L243.044 43.0719L243.044 43.0719L241.911 44.72ZM239.871 42.4L238.072 43.2749L238.087 43.3045L238.102 43.3335L239.871 42.4ZM239.751 34.92L237.858 34.2755L237.851 34.2936L237.846 34.3119L239.751 34.92ZM241.831 31.6L240.417 30.1858L240.417 30.1858L241.831 31.6ZM245.751 29.24L245.082 27.3551L245.072 27.3586L245.751 29.24ZM257.911 29.6L256.857 31.2998L256.865 31.3045L256.872 31.309L257.911 29.6ZM259.631 35.84L261.567 36.3398L261.569 36.3324L261.571 36.3251L259.631 35.84ZM258.671 37.96V39.96H259.689L260.288 39.1363L258.671 37.96ZM250.191 31.52L251.41 33.1052L251.419 33.099L251.427 33.0926L250.191 31.52ZM249.231 32.64L250.91 33.7265L250.924 33.7049L250.938 33.6829L249.231 32.64ZM248.431 34.24L250.282 34.9973L250.288 34.9831L250.293 34.9688L248.431 34.24ZM247.831 36.12L245.886 35.6533L245.294 38.12H247.831V36.12ZM252.391 36.12V38.12H254.085L254.364 36.4488L252.391 36.12ZM252.551 35.12L250.583 34.7622L250.578 34.789L250.574 34.8159L252.551 35.12ZM252.671 34.16L250.694 33.8559L250.683 33.9309L250.677 34.0066L252.671 34.16ZM245.463 37.6022C245.348 38.2357 245.26 38.8489 245.201 39.441L249.181 39.839C249.228 39.3644 249.301 38.8576 249.399 38.3178L245.463 37.6022ZM245.193 39.5401C245.165 40.0989 245.151 40.613 245.151 41.08H249.151C249.151 40.6937 249.163 40.2478 249.188 39.7399L245.193 39.5401ZM245.151 41.08C245.151 41.3922 245.168 41.7205 245.199 42.0611L249.183 41.6989C249.16 41.4529 249.151 41.2478 249.151 41.08H245.151ZM245.199 42.0611C245.237 42.4802 245.315 42.8925 245.435 43.2947L249.267 42.1453C249.227 42.0141 249.198 41.8665 249.183 41.6989L245.199 42.0611ZM245.523 43.5323C245.703 43.9374 245.938 44.318 246.232 44.6616L249.269 42.0584C249.244 42.0287 249.212 41.9826 249.179 41.9077L245.523 43.5323ZM246.449 44.8785C247.096 45.4329 247.86 45.6 248.511 45.6V41.6C248.522 41.6 248.779 41.6071 249.053 41.8415L246.449 44.8785ZM248.511 45.6C249.191 45.6 249.791 45.3765 250.269 45.1158L248.353 41.6042C248.305 41.6305 248.293 41.6312 248.316 41.6243C248.34 41.6171 248.408 41.6 248.511 41.6V45.6ZM250.205 45.1489C250.746 44.8788 251.224 44.5158 251.645 44.0942L248.817 41.2658C248.652 41.4309 248.516 41.5212 248.417 41.5711L250.205 45.1489ZM251.582 44.1543C252.055 43.7215 252.459 43.216 252.807 42.66L249.415 40.54C249.229 40.8374 249.047 41.0518 248.879 41.2057L251.582 44.1543ZM252.759 42.7331C253.179 42.1229 253.491 41.4519 253.707 40.7347L249.875 39.5853C249.77 39.9347 249.63 40.2238 249.463 40.4669L252.759 42.7331ZM251.791 42.16H258.351V38.16H251.791V42.16ZM256.407 39.6878L255.367 43.9678L259.254 44.9122L260.294 40.6322L256.407 39.6878ZM256.221 42.7631C255.843 43.009 255.38 43.2352 254.817 43.43L256.125 47.21C256.949 46.9248 257.713 46.5643 258.401 46.1169L256.221 42.7631ZM254.817 43.43C254.211 43.6398 253.561 43.8176 252.866 43.9615L253.676 47.8785C254.528 47.7024 255.344 47.4802 256.125 47.21L254.817 43.43ZM252.931 43.9491C252.228 44.0704 251.51 44.1556 250.778 44.2044L251.044 48.1956C251.912 48.1377 252.768 48.0363 253.611 47.8909L252.931 43.9491ZM250.712 44.2099C249.971 44.2841 249.277 44.32 248.631 44.32V48.32C249.425 48.32 250.251 48.2759 251.11 48.1901L250.712 44.2099ZM248.631 44.32C247.417 44.32 246.316 44.2107 245.321 44.0024L244.501 47.9176C245.8 48.1893 247.178 48.32 248.631 48.32V44.32ZM245.321 44.0024C244.399 43.8096 243.652 43.4901 243.044 43.0719L240.778 46.3681C241.876 47.1232 243.129 47.6304 244.501 47.9176L245.321 44.0024ZM243.044 43.0719C242.47 42.6774 242.003 42.1546 241.64 41.4665L238.102 43.3335C238.752 44.5654 239.645 45.5892 240.778 46.3681L243.044 43.0719ZM241.669 41.5251C241.357 40.8824 241.151 39.9877 241.151 38.76H237.151C237.151 40.4123 237.425 41.9443 238.072 43.2749L241.669 41.5251ZM241.151 38.76C241.151 37.6611 241.319 36.5862 241.656 35.5281L237.846 34.3119C237.383 35.7605 237.151 37.2455 237.151 38.76H241.151ZM241.644 35.5645C241.97 34.6086 242.496 33.7634 243.245 33.0142L240.417 30.1858C239.246 31.3566 238.386 32.7248 237.858 34.2755L241.644 35.5645ZM243.245 33.0142C243.98 32.2791 245.015 31.6316 246.429 31.1214L245.072 27.3586C243.234 28.0218 241.655 28.9476 240.417 30.1858L243.245 33.0142ZM246.42 31.1249C247.791 30.6381 249.602 30.36 251.911 30.36V26.36C249.314 26.36 247.017 26.6686 245.082 27.3551L246.42 31.1249ZM251.911 30.36C254.436 30.36 255.991 30.763 256.857 31.2998L258.965 27.9002C257.164 26.7836 254.719 26.36 251.911 26.36V30.36ZM256.872 31.309C257.563 31.7292 257.951 32.3298 257.951 33.48H261.951C261.951 31.1102 260.979 29.1242 258.95 27.891L256.872 31.309ZM257.951 33.48C257.951 34.0051 257.873 34.6266 257.691 35.3549L261.571 36.3251C261.816 35.3467 261.951 34.3949 261.951 33.48H257.951ZM257.694 35.3402C257.533 35.9656 257.308 36.433 257.053 36.7837L260.288 39.1363C260.887 38.3136 261.302 37.3677 261.567 36.3398L257.694 35.3402ZM258.671 35.96H247.431V39.96H258.671V35.96ZM254.751 33.2C254.751 32.6921 254.711 32.1785 254.597 31.6968C254.485 31.2269 254.271 30.659 253.831 30.1747L250.871 32.8653C250.781 32.7658 250.734 32.6802 250.715 32.6389C250.696 32.5983 250.697 32.588 250.705 32.6232C250.724 32.7015 250.751 32.8812 250.751 33.2H254.751ZM253.831 30.1747C253.212 29.4934 252.366 29.08 251.391 29.08V33.08C251.308 33.08 251.195 33.0618 251.078 33.0081C250.963 32.9557 250.896 32.8931 250.871 32.8653L253.831 30.1747ZM251.391 29.08C250.465 29.08 249.639 29.4102 248.955 29.9474L251.427 33.0926C251.447 33.0765 251.46 33.0686 251.465 33.0658C251.47 33.0631 251.468 33.0647 251.459 33.0678C251.451 33.0709 251.439 33.0743 251.425 33.0767C251.411 33.0792 251.399 33.08 251.391 33.08V29.08ZM248.972 29.9348C248.384 30.3868 247.911 30.965 247.524 31.5971L250.938 33.6829C251.138 33.355 251.305 33.1865 251.41 33.1052L248.972 29.9348ZM247.552 31.5535C247.172 32.141 246.847 32.799 246.568 33.5112L250.293 34.9688C250.495 34.4544 250.704 34.0457 250.91 33.7265L247.552 31.5535ZM246.58 33.4827C246.298 34.171 246.068 34.8955 245.886 35.6533L249.776 36.5867C249.914 36.0112 250.084 35.4823 250.282 34.9973L246.58 33.4827ZM247.831 38.12H252.391V34.12H247.831V38.12ZM254.364 36.4488C254.419 36.12 254.473 35.7784 254.528 35.4241L250.574 34.8159C250.522 35.155 250.47 35.48 250.418 35.7912L254.364 36.4488ZM254.519 35.4778C254.586 35.1068 254.634 34.7177 254.665 34.3134L250.677 34.0066C250.655 34.2957 250.622 34.5465 250.583 34.7622L254.519 35.4778ZM254.648 34.4641C254.714 34.0356 254.751 33.6126 254.751 33.2H250.751C250.751 33.3741 250.735 33.591 250.694 33.8559L254.648 34.4641ZM263.826 28.8V26.8H262.205L261.869 28.3859L263.826 28.8ZM270.346 28.8L272.307 28.4078L271.986 26.8H270.346V28.8ZM270.946 31.8L268.985 32.1922L269.306 33.8H270.946V31.8ZM271.226 31.8V33.8H272.321L272.911 32.8768L271.226 31.8ZM273.586 29.36L274.727 31.0027L274.727 31.0027L273.586 29.36ZM277.866 28.4L277.618 30.3846L277.741 30.4H277.866V28.4ZM278.626 28.52L278.051 30.4357L278.158 30.4678L278.268 30.4877L278.626 28.52ZM279.506 28.8L278.678 30.6207L278.774 30.6642L278.873 30.6974L279.506 28.8ZM280.426 29.28L282.382 29.6978L282.653 28.4269L281.602 27.6625L280.426 29.28ZM278.666 37.52V39.52H280.284L280.622 37.9378L278.666 37.52ZM274.306 37.52L272.307 37.5845L272.369 39.52H274.306V37.52ZM273.866 34.08L271.984 34.7574L271.989 34.7699L271.993 34.7822L273.866 34.08ZM271.826 33.28L272.509 35.1596L272.553 35.1439L272.595 35.1262L271.826 33.28ZM270.906 34.04L269.344 32.7906L269.049 33.1595L268.95 33.6214L270.906 34.04ZM268.346 46V48H269.963L270.302 46.4186L268.346 46ZM260.186 46L258.229 45.5859L257.718 48H260.186V46ZM263.826 30.8H270.346V26.8H263.826V30.8ZM268.385 29.1922L268.985 32.1922L272.907 31.4078L272.307 28.4078L268.385 29.1922ZM270.946 33.8H271.226V29.8H270.946V33.8ZM272.911 32.8768C273.379 32.1454 273.978 31.5226 274.727 31.0027L272.445 27.7173C271.274 28.5307 270.3 29.5346 269.541 30.7232L272.911 32.8768ZM274.727 31.0027C275.254 30.6368 276.082 30.36 277.386 30.36V26.36C275.543 26.36 273.838 26.7498 272.445 27.7173L274.727 31.0027ZM277.386 30.36C277.364 30.36 277.371 30.359 277.42 30.3631C277.465 30.3669 277.53 30.3736 277.618 30.3846L278.114 26.4154C277.883 26.3866 277.622 26.36 277.386 26.36V30.36ZM277.866 30.4C277.883 30.4 277.942 30.4029 278.051 30.4357L279.201 26.6043C278.777 26.4771 278.329 26.4 277.866 26.4V30.4ZM278.268 30.4877C278.387 30.5093 278.523 30.5501 278.678 30.6207L280.334 26.9793C279.902 26.7832 279.452 26.6373 278.984 26.5523L278.268 30.4877ZM278.873 30.6974C278.985 30.7345 279.11 30.7957 279.25 30.8975L281.602 27.6625C281.156 27.3376 280.667 27.0789 280.138 26.9026L278.873 30.6974ZM278.47 28.8622L276.71 37.1022L280.622 37.9378L282.382 29.6978L278.47 28.8622ZM278.666 35.52H274.306V39.52H278.666V35.52ZM276.305 37.4555C276.252 35.8067 276.107 34.3589 275.739 33.3778L271.993 34.7822C272.105 35.0811 272.253 35.9266 272.307 37.5845L276.305 37.4555ZM275.748 33.4026C275.554 32.8648 275.238 32.2773 274.702 31.8152C274.128 31.3206 273.429 31.08 272.706 31.08V35.08C272.628 35.08 272.519 35.0672 272.397 35.0229C272.274 34.9781 272.17 34.9133 272.09 34.8448C271.941 34.7161 271.938 34.6286 271.984 34.7574L275.748 33.4026ZM272.706 31.08C272.109 31.08 271.551 31.228 271.057 31.4338L272.595 35.1262C272.665 35.097 272.709 35.0848 272.729 35.0803C272.749 35.0758 272.739 35.08 272.706 35.08V31.08ZM271.142 31.4004C270.349 31.6891 269.762 32.2688 269.344 32.7906L272.468 35.2894C272.515 35.2302 272.555 35.1852 272.587 35.1519C272.619 35.1186 272.64 35.0999 272.65 35.0919C272.673 35.0727 272.627 35.1168 272.509 35.1596L271.142 31.4004ZM268.95 33.6214L266.39 45.5814L270.302 46.4186L272.862 34.4586L268.95 33.6214ZM268.346 44H260.186V48H268.346V44ZM262.143 46.4141L265.783 29.2141L261.869 28.3859L258.229 45.5859L262.143 46.4141Z" fill="#2F2F2F" mask="url(#path-1-outside-1_36_212)"/>
<path d="M24 18.5L11.5 27L1 17L11.5 18.5V12.5L18.5 14L21 6L24 18.5Z" fill="black" stroke="#2F2F2F" stroke-width="2" stroke-linecap="round" stroke-linejoin="round"/>
</svg>
