<svg width="792" height="665" viewBox="0 0 792 665" fill="none" xmlns="http://www.w3.org/2000/svg">
<path d="M185.938 307.5H302.813V405H185.938V307.5ZM185.938 534.687H302.813V437.187H185.938V534.687ZM185.938 664.062H302.813V566.562H185.938V664.062ZM337.5 534.687H454.063V437.187H337.188V534.687H337.5ZM337.5 664.062H454.063V566.562H337.188V664.062H337.5ZM489.062 566.562V664.062H605.938V566.562H489.062ZM791.563 186.25L395.625 0L0 186.875L24.6875 238.438L75 214.375V664.375H131.875V212.5H660V665H716.875V215L767.188 238.438L791.563 186.25Z" fill="#EFE947"/>
</svg>
