<svg width="474" height="480" viewBox="0 0 474 480" fill="none" xmlns="http://www.w3.org/2000/svg">
<path d="M360.4 252C337.853 251.921 315.789 258.53 296.998 270.991C278.207 283.451 263.533 301.204 254.832 322.005C246.131 342.805 243.793 365.718 248.114 387.848C252.435 409.977 263.221 430.327 279.108 446.326C294.995 462.325 315.27 473.254 337.368 477.73C359.466 482.207 382.395 480.029 403.256 471.474C424.117 462.919 441.973 448.37 454.565 429.667C467.157 410.964 473.921 388.947 474 366.4C473.959 336.21 462.002 307.257 440.73 285.835C419.457 264.413 390.589 252.253 360.4 252ZM380.4 376C377.394 376.006 374.411 375.464 371.6 374.4L328.4 417.6C326.051 419.96 322.922 421.382 319.6 421.6C315.6 421.6 312.4 420.8 310.8 417.6C308.471 414.944 307.187 411.533 307.187 408C307.187 404.468 308.471 401.056 310.8 398.4L354 355.2C352.374 350.016 351.95 344.529 352.762 339.157C353.573 333.785 355.598 328.668 358.682 324.195C361.767 319.722 365.83 316.011 370.564 313.344C375.297 310.676 380.576 309.122 386 308.8C389.006 308.794 391.988 309.336 394.8 310.4C396.4 310.4 396.4 312 395.6 313.6L375.6 332.8C375.22 333.075 374.91 333.435 374.697 333.852C374.484 334.27 374.372 334.732 374.372 335.2C374.372 335.669 374.484 336.131 374.697 336.548C374.91 336.965 375.22 337.326 375.6 337.6L388.4 350.4C388.759 350.783 389.193 351.088 389.674 351.296C390.156 351.505 390.675 351.612 391.2 351.612C391.725 351.612 392.244 351.505 392.725 351.296C393.207 351.088 393.641 350.783 394 350.4L413.2 331.2C414 330.4 417.2 330.4 417.2 332C417.984 334.882 418.519 337.827 418.8 340.8C418.737 345.68 417.676 350.495 415.682 354.949C413.688 359.402 410.804 363.401 407.207 366.699C403.61 369.996 399.376 372.522 394.765 374.122C390.155 375.722 385.266 376.361 380.4 376Z" fill="#EFE947"/>
<path d="M194.8 257.6C265.934 257.6 323.6 199.934 323.6 128.8C323.6 57.6657 265.934 0 194.8 0C123.666 0 66 57.6657 66 128.8C66 199.934 123.666 257.6 194.8 257.6Z" fill="#EFE947"/>
<path d="M229.2 477.6C250.8 477.6 238.8 462.4 238.8 462.4C221.124 439.967 209.917 413.129 206.392 384.787C202.867 356.445 207.158 327.679 218.8 301.6L220.4 298.4C221.494 297.03 222.181 295.381 222.383 293.64C222.586 291.899 222.295 290.136 221.545 288.552C220.794 286.968 219.615 285.627 218.139 284.68C216.664 283.734 214.953 283.221 213.2 283.2C206.824 282.517 200.41 282.25 194 282.4C146.954 282.56 101.53 299.609 65.9975 330.443C30.4647 361.277 7.18621 403.846 0.399902 450.4C0.399902 460 3.59991 478.4 33.9999 478.4H225.2C226.487 477.939 227.835 477.67 229.2 477.6Z" fill="#EFE947"/>
</svg>
