<svg width="229" height="32" viewBox="0 0 229 32" fill="none" xmlns="http://www.w3.org/2000/svg">
<circle cx="18" cy="17" r="15" fill="#EFE947"/>
<path d="M14.2802 12.58V9.4H19.8202V24H16.2602V12.58H14.2802Z" fill="black"/>
<circle cx="115" cy="17" r="15" fill="#EFE947"/>
<path d="M109.567 21.26C110.02 20.9 110.227 20.7333 110.187 20.76C111.494 19.68 112.52 18.7933 113.267 18.1C114.027 17.4067 114.667 16.68 115.187 15.92C115.707 15.16 115.967 14.42 115.967 13.7C115.967 13.1533 115.84 12.7267 115.587 12.42C115.334 12.1133 114.954 11.96 114.447 11.96C113.94 11.96 113.54 12.1533 113.247 12.54C112.967 12.9133 112.827 13.4467 112.827 14.14H109.527C109.554 13.0067 109.794 12.06 110.247 11.3C110.714 10.54 111.32 9.98 112.067 9.62C112.827 9.26 113.667 9.08 114.587 9.08C116.174 9.08 117.367 9.48667 118.167 10.3C118.98 11.1133 119.387 12.1733 119.387 13.48C119.387 14.9067 118.9 16.2333 117.927 17.46C116.954 18.6733 115.714 19.86 114.207 21.02H119.607V23.8H109.567V21.26Z" fill="black"/>
<circle cx="212" cy="15" r="15" fill="#8F8F8F"/>
<path d="M206.465 11.52C206.519 10.0933 206.985 8.99333 207.865 8.22C208.745 7.44667 209.939 7.06 211.445 7.06C212.445 7.06 213.299 7.23333 214.005 7.58C214.725 7.92667 215.265 8.4 215.625 9C215.999 9.6 216.185 10.2733 216.185 11.02C216.185 11.9 215.965 12.62 215.525 13.18C215.085 13.7267 214.572 14.1 213.985 14.3V14.38C214.745 14.6333 215.345 15.0533 215.785 15.64C216.225 16.2267 216.445 16.98 216.445 17.9C216.445 18.7267 216.252 19.46 215.865 20.1C215.492 20.7267 214.939 21.22 214.205 21.58C213.485 21.94 212.625 22.12 211.625 22.12C210.025 22.12 208.745 21.7267 207.785 20.94C206.839 20.1533 206.339 18.9667 206.285 17.38H209.605C209.619 17.9667 209.785 18.4333 210.105 18.78C210.425 19.1133 210.892 19.28 211.505 19.28C212.025 19.28 212.425 19.1333 212.705 18.84C212.999 18.5333 213.145 18.1333 213.145 17.64C213.145 17 212.939 16.54 212.525 16.26C212.125 15.9667 211.479 15.82 210.585 15.82H209.945V13.04H210.585C211.265 13.04 211.812 12.9267 212.225 12.7C212.652 12.46 212.865 12.04 212.865 11.44C212.865 10.96 212.732 10.5867 212.465 10.32C212.199 10.0533 211.832 9.92 211.365 9.92C210.859 9.92 210.479 10.0733 210.225 10.38C209.985 10.6867 209.845 11.0667 209.805 11.52H206.465Z" fill="black"/>
<line x1="33.9603" y1="16.9608" x2="103.961" y2="16.0397" stroke="#EFE947" stroke-width="6" stroke-linecap="round" stroke-dasharray="11 11"/>
<path d="M132.5 17H194" stroke="#9C9C9C" stroke-width="6" stroke-linecap="round" stroke-dasharray="11 11"/>
</svg>
