<svg width="229" height="32" viewBox="0 0 229 32" fill="none" xmlns="http://www.w3.org/2000/svg">
<circle cx="18" cy="17" r="14.5" fill="#21882C" stroke="#21882C"/>
<mask id="path-2-outside-1_53_558" maskUnits="userSpaceOnUse" x="13" y="8" width="8" height="17" fill="black">
<rect fill="white" x="13" y="8" width="8" height="17"/>
<path d="M14.2802 12.58V9.4H19.8202V24H16.2602V12.58H14.2802Z"/>
</mask>
<path d="M14.2802 12.58V9.4H19.8202V24H16.2602V12.58H14.2802Z" fill="white"/>
<path d="M14.2802 12.58H13.2802V13.58H14.2802V12.58ZM14.2802 9.4V8.4H13.2802V9.4H14.2802ZM19.8202 9.4H20.8202V8.4H19.8202V9.4ZM19.8202 24V25H20.8202V24H19.8202ZM16.2602 24H15.2602V25H16.2602V24ZM16.2602 12.58H17.2602V11.58H16.2602V12.58ZM15.2802 12.58V9.4H13.2802V12.58H15.2802ZM14.2802 10.4H19.8202V8.4H14.2802V10.4ZM18.8202 9.4V24H20.8202V9.4H18.8202ZM19.8202 23H16.2602V25H19.8202V23ZM17.2602 24V12.58H15.2602V24H17.2602ZM16.2602 11.58H14.2802V13.58H16.2602V11.58Z" fill="#21882C" mask="url(#path-2-outside-1_53_558)"/>
<circle cx="115" cy="17" r="14.5" fill="#21882C" stroke="#21882C"/>
<mask id="path-5-outside-2_53_558" maskUnits="userSpaceOnUse" x="108" y="8" width="13" height="17" fill="black">
<rect fill="white" x="108" y="8" width="13" height="17"/>
<path d="M109.567 21.26C110.02 20.9 110.227 20.7333 110.187 20.76C111.494 19.68 112.52 18.7933 113.267 18.1C114.027 17.4067 114.667 16.68 115.187 15.92C115.707 15.16 115.967 14.42 115.967 13.7C115.967 13.1533 115.84 12.7267 115.587 12.42C115.334 12.1133 114.954 11.96 114.447 11.96C113.94 11.96 113.54 12.1533 113.247 12.54C112.967 12.9133 112.827 13.4467 112.827 14.14H109.527C109.554 13.0067 109.794 12.06 110.247 11.3C110.714 10.54 111.32 9.98 112.067 9.62C112.827 9.26 113.667 9.08 114.587 9.08C116.174 9.08 117.367 9.48667 118.167 10.3C118.98 11.1133 119.387 12.1733 119.387 13.48C119.387 14.9067 118.9 16.2333 117.927 17.46C116.954 18.6733 115.714 19.86 114.207 21.02H119.607V23.8H109.567V21.26Z"/>
</mask>
<path d="M109.567 21.26C110.02 20.9 110.227 20.7333 110.187 20.76C111.494 19.68 112.52 18.7933 113.267 18.1C114.027 17.4067 114.667 16.68 115.187 15.92C115.707 15.16 115.967 14.42 115.967 13.7C115.967 13.1533 115.84 12.7267 115.587 12.42C115.334 12.1133 114.954 11.96 114.447 11.96C113.94 11.96 113.54 12.1533 113.247 12.54C112.967 12.9133 112.827 13.4467 112.827 14.14H109.527C109.554 13.0067 109.794 12.06 110.247 11.3C110.714 10.54 111.32 9.98 112.067 9.62C112.827 9.26 113.667 9.08 114.587 9.08C116.174 9.08 117.367 9.48667 118.167 10.3C118.98 11.1133 119.387 12.1733 119.387 13.48C119.387 14.9067 118.9 16.2333 117.927 17.46C116.954 18.6733 115.714 19.86 114.207 21.02H119.607V23.8H109.567V21.26Z" fill="white"/>
<path d="M109.567 21.26L108.945 20.4769L108.567 20.7772V21.26H109.567ZM110.187 20.76L109.55 19.9892L110.742 21.5921L110.187 20.76ZM113.267 18.1L112.593 17.3612L112.587 17.3672L113.267 18.1ZM115.587 12.42L114.816 13.0569L114.816 13.0569L115.587 12.42ZM113.247 12.54L112.45 11.9356L112.447 11.94L113.247 12.54ZM112.827 14.14V15.14H113.827V14.14H112.827ZM109.527 14.14L108.527 14.1165L108.503 15.14H109.527V14.14ZM110.247 11.3L109.395 10.7767L109.388 10.7877L110.247 11.3ZM112.067 9.62L111.639 8.71624L111.633 8.71923L112.067 9.62ZM118.167 10.3L117.454 11.0013L117.46 11.0071L118.167 10.3ZM117.927 17.46L118.707 18.0857L118.71 18.0816L117.927 17.46ZM114.207 21.02L113.597 20.2276L111.269 22.02H114.207V21.02ZM119.607 21.02H120.607V20.02H119.607V21.02ZM119.607 23.8V24.8H120.607V23.8H119.607ZM109.567 23.8H108.567V24.8H109.567V23.8ZM110.189 22.0431C110.416 21.8629 110.583 21.7293 110.69 21.6434C110.741 21.6018 110.785 21.5666 110.814 21.542C110.815 21.5413 110.858 21.5058 110.898 21.4662C110.906 21.458 110.92 21.4434 110.937 21.4244C110.948 21.412 110.988 21.3675 111.029 21.3039C111.048 21.2749 111.094 21.2025 111.131 21.1003C111.154 21.0389 111.264 20.7347 111.117 20.3765C110.922 19.9046 110.493 19.7819 110.289 19.762C110.109 19.7443 109.969 19.7814 109.929 19.7925C109.827 19.8202 109.753 19.8584 109.739 19.8653C109.712 19.8792 109.691 19.8915 109.68 19.898C109.657 19.9114 109.64 19.923 109.632 19.9279L110.742 21.5921C110.737 21.5954 110.721 21.6057 110.7 21.6181C110.69 21.6242 110.67 21.6361 110.643 21.6497C110.63 21.6564 110.556 21.6944 110.455 21.722C110.414 21.733 110.275 21.7702 110.094 21.7525C109.891 21.7325 109.462 21.61 109.267 21.1381C109.12 20.7799 109.23 20.4758 109.253 20.4145C109.29 20.3125 109.335 20.2401 109.354 20.2113C109.396 20.148 109.435 20.1039 109.446 20.092C109.462 20.0735 109.476 20.0594 109.483 20.052C109.518 20.0177 109.548 19.9937 109.528 20.0105C109.515 20.0209 109.486 20.0449 109.434 20.0866C109.334 20.1674 109.172 20.2971 108.945 20.4769L110.189 22.0431ZM110.824 21.5308C112.137 20.4454 113.181 19.5449 113.948 18.8328L112.587 17.3672C111.86 18.0417 110.85 18.9146 109.55 19.9892L110.824 21.5308ZM113.941 18.8388C114.752 18.0994 115.444 17.3153 116.012 16.4847L114.362 15.3553C113.89 16.0447 113.303 16.7139 112.593 17.3612L113.941 18.8388ZM116.012 16.4847C116.615 15.6046 116.967 14.6711 116.967 13.7H114.967C114.967 14.1689 114.8 14.7154 114.362 15.3553L116.012 16.4847ZM116.967 13.7C116.967 13.0074 116.807 12.326 116.358 11.7831L114.816 13.0569C114.874 13.1274 114.967 13.2993 114.967 13.7H116.967ZM116.358 11.7831C115.865 11.186 115.164 10.96 114.447 10.96V12.96C114.744 12.96 114.803 13.0406 114.816 13.0569L116.358 11.7831ZM114.447 10.96C113.644 10.96 112.942 11.2872 112.45 11.9356L114.044 13.1444C114.139 13.0195 114.237 12.96 114.447 12.96V10.96ZM112.447 11.94C111.988 12.5524 111.827 13.3306 111.827 14.14H113.827C113.827 13.5628 113.946 13.2743 114.047 13.14L112.447 11.94ZM112.827 13.14H109.527V15.14H112.827V13.14ZM110.527 14.1635C110.551 13.1551 110.762 12.3882 111.106 11.8123L109.388 10.7877C108.825 11.7318 108.557 12.8582 108.527 14.1165L110.527 14.1635ZM111.099 11.8233C111.474 11.2136 111.941 10.7912 112.501 10.5208L111.633 8.71923C110.7 9.16879 109.954 9.86641 109.395 10.7767L111.099 11.8233ZM112.495 10.5237C113.109 10.2329 113.801 10.08 114.587 10.08V8.08C113.533 8.08 112.545 8.28711 111.639 8.71626L112.495 10.5237ZM114.587 10.08C116.013 10.08 116.906 10.4437 117.454 11.0012L118.88 9.59876C117.828 8.52962 116.335 8.08 114.587 8.08V10.08ZM117.46 11.0071C118.06 11.6069 118.387 12.3993 118.387 13.48H120.387C120.387 11.9474 119.901 10.6198 118.874 9.59289L117.46 11.0071ZM118.387 13.48C118.387 14.6586 117.991 15.7702 117.144 16.8384L118.71 18.0816C119.81 16.6965 120.387 15.1547 120.387 13.48H118.387ZM117.147 16.8343C116.233 17.9735 115.054 19.1059 113.597 20.2276L114.817 21.8124C116.374 20.6141 117.674 19.3731 118.707 18.0857L117.147 16.8343ZM114.207 22.02H119.607V20.02H114.207V22.02ZM118.607 21.02V23.8H120.607V21.02H118.607ZM119.607 22.8H109.567V24.8H119.607V22.8ZM110.567 23.8V21.26H108.567V23.8H110.567Z" fill="#21882C" mask="url(#path-5-outside-2_53_558)"/>
<circle cx="212" cy="15" r="14.5" fill="#21882C" stroke="#21882C"/>
<mask id="path-8-outside-3_53_558" maskUnits="userSpaceOnUse" x="205" y="6" width="13" height="18" fill="black">
<rect fill="white" x="205" y="6" width="13" height="18"/>
<path d="M206.465 11.52C206.519 10.0933 206.985 8.99333 207.865 8.22C208.745 7.44667 209.939 7.06 211.445 7.06C212.445 7.06 213.299 7.23333 214.005 7.58C214.725 7.92667 215.265 8.4 215.625 9C215.999 9.6 216.185 10.2733 216.185 11.02C216.185 11.9 215.965 12.62 215.525 13.18C215.085 13.7267 214.572 14.1 213.985 14.3V14.38C214.745 14.6333 215.345 15.0533 215.785 15.64C216.225 16.2267 216.445 16.98 216.445 17.9C216.445 18.7267 216.252 19.46 215.865 20.1C215.492 20.7267 214.939 21.22 214.205 21.58C213.485 21.94 212.625 22.12 211.625 22.12C210.025 22.12 208.745 21.7267 207.785 20.94C206.839 20.1533 206.339 18.9667 206.285 17.38H209.605C209.619 17.9667 209.785 18.4333 210.105 18.78C210.425 19.1133 210.892 19.28 211.505 19.28C212.025 19.28 212.425 19.1333 212.705 18.84C212.999 18.5333 213.145 18.1333 213.145 17.64C213.145 17 212.939 16.54 212.525 16.26C212.125 15.9667 211.479 15.82 210.585 15.82H209.945V13.04H210.585C211.265 13.04 211.812 12.9267 212.225 12.7C212.652 12.46 212.865 12.04 212.865 11.44C212.865 10.96 212.732 10.5867 212.465 10.32C212.199 10.0533 211.832 9.92 211.365 9.92C210.859 9.92 210.479 10.0733 210.225 10.38C209.985 10.6867 209.845 11.0667 209.805 11.52H206.465Z"/>
</mask>
<path d="M206.465 11.52C206.519 10.0933 206.985 8.99333 207.865 8.22C208.745 7.44667 209.939 7.06 211.445 7.06C212.445 7.06 213.299 7.23333 214.005 7.58C214.725 7.92667 215.265 8.4 215.625 9C215.999 9.6 216.185 10.2733 216.185 11.02C216.185 11.9 215.965 12.62 215.525 13.18C215.085 13.7267 214.572 14.1 213.985 14.3V14.38C214.745 14.6333 215.345 15.0533 215.785 15.64C216.225 16.2267 216.445 16.98 216.445 17.9C216.445 18.7267 216.252 19.46 215.865 20.1C215.492 20.7267 214.939 21.22 214.205 21.58C213.485 21.94 212.625 22.12 211.625 22.12C210.025 22.12 208.745 21.7267 207.785 20.94C206.839 20.1533 206.339 18.9667 206.285 17.38H209.605C209.619 17.9667 209.785 18.4333 210.105 18.78C210.425 19.1133 210.892 19.28 211.505 19.28C212.025 19.28 212.425 19.1333 212.705 18.84C212.999 18.5333 213.145 18.1333 213.145 17.64C213.145 17 212.939 16.54 212.525 16.26C212.125 15.9667 211.479 15.82 210.585 15.82H209.945V13.04H210.585C211.265 13.04 211.812 12.9267 212.225 12.7C212.652 12.46 212.865 12.04 212.865 11.44C212.865 10.96 212.732 10.5867 212.465 10.32C212.199 10.0533 211.832 9.92 211.365 9.92C210.859 9.92 210.479 10.0733 210.225 10.38C209.985 10.6867 209.845 11.0667 209.805 11.52H206.465Z" fill="white"/>
<path d="M206.465 11.52L205.466 11.4826L205.427 12.52H206.465V11.52ZM207.865 8.22L208.525 8.97116H208.525L207.865 8.22ZM214.005 7.58L213.565 8.47781L213.571 8.481L214.005 7.58ZM215.625 9L214.768 9.51449L214.772 9.52143L214.776 9.5283L215.625 9ZM215.525 13.18L216.304 13.8071L216.312 13.7978L215.525 13.18ZM213.985 14.3L213.663 13.3535L212.985 13.5844V14.3H213.985ZM213.985 14.38H212.985V15.1008L213.669 15.3287L213.985 14.38ZM215.785 15.64L216.585 15.04L215.785 15.64ZM215.865 20.1L215.009 19.5829L215.006 19.5882L215.865 20.1ZM214.205 21.58L213.765 20.6823L213.758 20.6856L214.205 21.58ZM207.785 20.94L207.146 21.7091L207.151 21.7135L207.785 20.94ZM206.285 17.38V16.38H205.251L205.286 17.4136L206.285 17.38ZM209.605 17.38L210.605 17.3573L210.583 16.38H209.605V17.38ZM210.105 18.78L209.371 19.4583L209.377 19.4655L209.384 19.4725L210.105 18.78ZM212.705 18.84L211.983 18.1488L211.982 18.1495L212.705 18.84ZM212.525 16.26L211.934 17.0664L211.949 17.0774L211.964 17.0879L212.525 16.26ZM209.945 15.82H208.945V16.82H209.945V15.82ZM209.945 13.04V12.04H208.945V13.04H209.945ZM212.225 12.7L212.706 13.5769L212.716 13.5716L212.225 12.7ZM212.465 10.32L213.172 9.61289L213.172 9.61289L212.465 10.32ZM210.225 10.38L209.454 9.74312L209.446 9.75329L209.438 9.76369L210.225 10.38ZM209.805 11.52V12.52H210.721L210.801 11.6079L209.805 11.52ZM207.465 11.5574C207.51 10.3406 207.896 9.52464 208.525 8.97116L207.205 7.46883C206.075 8.46202 205.527 9.84602 205.466 11.4826L207.465 11.5574ZM208.525 8.97116C209.176 8.39976 210.11 8.06 211.445 8.06V6.06C209.767 6.06 208.315 6.49357 207.205 7.46883L208.525 8.97116ZM211.445 8.06C212.333 8.06 213.027 8.21404 213.565 8.47779L214.446 6.68221C213.57 6.25263 212.558 6.06 211.445 6.06V8.06ZM213.571 8.481C214.141 8.75534 214.522 9.10483 214.768 9.51449L216.483 8.4855C216.009 7.69517 215.309 7.09799 214.439 6.679L213.571 8.481ZM214.776 9.5283C215.045 9.96062 215.185 10.449 215.185 11.02H217.185C217.185 10.0976 216.952 9.23938 216.474 8.4717L214.776 9.5283ZM215.185 11.02C215.185 11.73 215.01 12.2166 214.739 12.5622L216.312 13.7978C216.92 13.0233 217.185 12.07 217.185 11.02H215.185ZM214.746 12.553C214.409 12.9721 214.047 13.2224 213.663 13.3535L214.308 15.2465C215.097 14.9776 215.762 14.4812 216.304 13.807L214.746 12.553ZM212.985 14.3V14.38H214.985V14.3H212.985ZM213.669 15.3287C214.255 15.5239 214.679 15.8311 214.985 16.24L216.585 15.04C216.012 14.2755 215.236 13.7427 214.302 13.4313L213.669 15.3287ZM214.985 16.24C215.266 16.6137 215.445 17.1405 215.445 17.9H217.445C217.445 16.8195 217.185 15.8397 216.585 15.04L214.985 16.24ZM215.445 17.9C215.445 18.5642 215.292 19.115 215.009 19.5829L216.721 20.6171C217.212 19.805 217.445 18.8891 217.445 17.9H215.445ZM215.006 19.5882C214.744 20.0289 214.346 20.3971 213.765 20.6823L214.646 22.4777C215.532 22.0429 216.24 21.4244 216.724 20.6118L215.006 19.5882ZM213.758 20.6856C213.207 20.9614 212.507 21.12 211.625 21.12V23.12C212.744 23.12 213.764 22.9186 214.653 22.4744L213.758 20.6856ZM211.625 21.12C210.189 21.12 209.154 20.7688 208.419 20.1665L207.151 21.7135C208.337 22.6845 209.862 23.12 211.625 23.12V21.12ZM208.424 20.1709C207.757 19.6163 207.331 18.7358 207.285 17.3464L205.286 17.4136C205.346 19.1975 205.92 20.6903 207.146 21.7091L208.424 20.1709ZM206.285 18.38H209.605V16.38H206.285V18.38ZM208.606 17.4027C208.623 18.1712 208.848 18.892 209.371 19.4583L210.84 18.1017C210.723 17.9747 210.614 17.7621 210.605 17.3573L208.606 17.4027ZM209.384 19.4725C209.948 20.0605 210.713 20.28 211.505 20.28V18.28C211.071 18.28 210.902 18.1662 210.827 18.0875L209.384 19.4725ZM211.505 20.28C212.217 20.28 212.91 20.0735 213.429 19.5305L211.982 18.1495C211.94 18.1932 211.833 18.28 211.505 18.28V20.28ZM213.428 19.5312C213.928 19.0083 214.145 18.3459 214.145 17.64H212.145C212.145 17.9207 212.069 18.0583 211.983 18.1488L213.428 19.5312ZM214.145 17.64C214.145 16.7731 213.851 15.9501 213.086 15.4321L211.964 17.0879C212.026 17.1299 212.145 17.2269 212.145 17.64H214.145ZM213.117 15.4536C212.455 14.9682 211.542 14.82 210.585 14.82V16.82C211.415 16.82 211.796 16.9651 211.934 17.0664L213.117 15.4536ZM210.585 14.82H209.945V16.82H210.585V14.82ZM210.945 15.82V13.04H208.945V15.82H210.945ZM209.945 14.04H210.585V12.04H209.945V14.04ZM210.585 14.04C211.364 14.04 212.095 13.9122 212.706 13.5768L211.744 11.8232C211.529 11.9411 211.167 12.04 210.585 12.04V14.04ZM212.716 13.5716C213.533 13.1119 213.865 12.3052 213.865 11.44H211.865C211.865 11.6245 211.832 11.7155 211.814 11.7521C211.8 11.7788 211.783 11.8013 211.735 11.8284L212.716 13.5716ZM213.865 11.44C213.865 10.7707 213.674 10.1147 213.172 9.61289L211.758 11.0271C211.79 11.0586 211.865 11.1493 211.865 11.44H213.865ZM213.172 9.61289C212.676 9.11625 212.03 8.92 211.365 8.92V10.92C211.634 10.92 211.722 10.9904 211.758 11.0271L213.172 9.61289ZM211.365 8.92C210.649 8.92 209.948 9.14603 209.454 9.74312L210.996 11.0169C211.01 11.0006 211.068 10.92 211.365 10.92V8.92ZM209.438 9.76369C209.06 10.2469 208.863 10.8193 208.809 11.4321L210.801 11.6079C210.827 11.314 210.911 11.1265 211.013 10.9963L209.438 9.76369ZM209.805 10.52H206.465V12.52H209.805V10.52Z" fill="#21882C" mask="url(#path-8-outside-3_53_558)"/>
<line x1="33.9603" y1="16.9608" x2="103.961" y2="16.0397" stroke="#21882C" stroke-width="6" stroke-linecap="round" stroke-dasharray="11 11"/>
<path d="M132.5 17H194" stroke="#21882C" stroke-width="6" stroke-linecap="round" stroke-dasharray="11 11"/>
</svg>
