<svg width="66" height="41" viewBox="0 0 66 41" fill="none" xmlns="http://www.w3.org/2000/svg">
<path d="M1.00408 21.0049L1.00411 21.0064C1.13883 28.0307 3.55177 33.6092 7.31142 36.873C11.1061 40.1673 16.1721 41.0052 21.2652 38.6821C23.7686 37.5403 25.9835 35.6312 27.9896 33.4667C29.767 31.5489 31.4233 29.3822 32.9916 27.2955C35.8175 31.0772 38.3495 34.2689 41.278 36.6403C44.4537 39.2117 47.8309 40.219 51.0441 39.9064C54.2449 39.5949 57.1786 37.9845 59.508 35.5095C64.16 30.5666 66.4868 22.1108 63.9684 12.9711C62.4508 7.46331 59.434 3.65441 54.9777 1.91779C49.6823 -0.145818 45.1486 1.51841 41.4263 4.41174C38.0681 7.02201 35.2604 10.7135 32.9932 13.7395C30.172 9.96815 27.4073 6.43085 24.1597 3.97133L23.5559 4.76852L24.1597 3.97133C21.4511 1.9201 18.5973 1.00367 15.8304 1.06991C13.0694 1.136 10.4665 2.17871 8.24688 3.92524C3.81931 7.40916 0.875077 13.7113 1.00408 21.0049ZM33.6112 26.4709C33.6111 26.471 33.6105 26.4717 33.6095 26.4728C33.6108 26.4713 33.6113 26.4707 33.6112 26.4709ZM32.3788 26.4729C32.3758 26.4693 32.3743 26.4673 32.3744 26.4674C32.3745 26.4674 32.376 26.4691 32.3788 26.4729ZM27.9607 20.5466C26.5013 22.5292 24.9645 24.5978 23.3058 26.3488C21.5033 28.2517 19.6528 29.6731 17.7334 30.2217C15.5472 30.8467 13.478 30.3414 11.8933 28.8145C10.2858 27.2656 9.08905 24.5723 8.94137 20.6948C8.93557 16.9591 10.3601 13.7933 12.4108 12.0475C13.4303 11.1796 14.5967 10.6656 15.835 10.5719C17.0702 10.4785 18.447 10.7981 19.8999 11.7134C21.428 12.6762 22.8385 14.121 24.2305 15.7921C24.9231 16.6236 25.5995 17.4964 26.2787 18.3794C26.3535 18.4768 26.4285 18.5743 26.5035 18.6719C26.9866 19.3005 27.4724 19.9327 27.9607 20.5466ZM38.0247 20.4903C39.4434 18.5634 40.9553 16.5258 42.5887 14.7846C44.3644 12.8918 46.1892 11.455 48.065 10.8735C50.4174 10.1443 52.5543 10.7067 54.1588 12.2863C55.7923 13.8946 56.9523 16.6448 57.0457 20.3843C57.0502 25.5774 54.2833 29.6101 50.9119 30.3605C48.407 30.9181 46.1249 29.711 43.8655 27.5345C42.261 25.9887 40.8173 24.108 39.4184 22.2856C38.9503 21.6757 38.4871 21.0724 38.0247 20.4903Z" fill="#EFE947" stroke="black" stroke-width="2"/>
</svg>
