<svg width="453" height="501" viewBox="0 0 453 501" fill="none" xmlns="http://www.w3.org/2000/svg">
<path d="M348.076 180.51C365.66 221.936 352.092 267.146 318.026 281.606C283.96 296.066 242.014 274.421 224.429 232.995C206.845 191.568 220.413 146.359 254.479 131.898C288.545 117.438 330.492 139.083 348.076 180.51Z" stroke="#484848"/>
<path d="M354.743 180.405C380.514 241.118 361.878 306.901 313.412 327.473C264.946 348.046 204.68 315.755 178.909 255.043C153.138 194.33 171.775 128.547 220.24 107.975C268.706 87.4022 328.972 119.692 354.743 180.405Z" stroke="#484848"/>
<path d="M359.795 177.987C390.132 249.457 362.044 329.666 297.189 357.195C232.333 384.725 155.124 349.212 124.787 277.742C94.4496 206.272 122.538 126.063 187.393 98.5336C252.249 71.0041 329.458 106.517 359.795 177.987Z" stroke="#484848"/>
<path d="M365.622 172.504C405.94 267.487 373.258 372.074 292.847 406.207C212.436 440.339 114.5 391.196 74.182 296.213C33.864 201.23 66.5457 96.6424 146.957 62.51C227.367 28.3777 325.304 77.5209 365.622 172.504Z" stroke="#484848"/>
<path d="M153 62C182 93.6667 252.2 152 301 132" stroke="#484848"/>
<path d="M81.5 122C130.167 153.167 243.8 200.1 309 138.5" stroke="#484848"/>
<path d="M344.5 369C357.833 333.5 371 240 355 199.5" stroke="#484848"/>
<path d="M231 418C280.667 373 355 271.5 355 231.5" stroke="#484848"/>
<path d="M133 376.5C207 350.5 341.4 296.6 355 207" stroke="#484848"/>
<path d="M89 326C177.5 306.833 341.4 261.4 347 177" stroke="#484848"/>
<path d="M64.5 266.5C141 260.333 288.5 240.4 334.5 158" stroke="#484848"/>
<path d="M58.5 196C134.167 207.667 279.6 229.4 322 145" stroke="#484848" stroke-linecap="round"/>
</svg>
