<svg width="200" height="75" viewBox="0 0 200 75" fill="none" xmlns="http://www.w3.org/2000/svg">
<path d="M52.2689 56.16C52.2689 56.4693 52.2209 56.7467 52.1249 56.992C52.0396 57.2373 51.9169 57.456 51.7569 57.648C51.5969 57.84 51.4103 58.0107 51.1969 58.16C50.9836 58.3093 50.7489 58.448 50.4929 58.576C50.6103 58.6187 50.7489 58.688 50.9089 58.784C51.0689 58.8693 51.2236 58.992 51.3729 59.152C51.5223 59.312 51.6449 59.52 51.7409 59.776C51.8476 60.0213 51.9009 60.3253 51.9009 60.688C51.9009 61.168 51.7996 61.6107 51.5969 62.016C51.3943 62.4213 51.0903 62.7733 50.6849 63.072C50.2903 63.36 49.7996 63.5893 49.2129 63.76C48.6369 63.92 47.9703 64 47.2129 64H42.4609L44.6209 53.84H48.8289C49.2449 53.84 49.6556 53.872 50.0609 53.936C50.4769 53.9893 50.8449 54.1013 51.1649 54.272C51.4956 54.4427 51.7623 54.6827 51.9649 54.992C52.1676 55.2907 52.2689 55.68 52.2689 56.16ZM47.9169 58.096C48.1516 58.096 48.3489 58.0267 48.5089 57.888C48.6796 57.7493 48.8183 57.5787 48.9249 57.376C49.0316 57.1627 49.1116 56.9387 49.1649 56.704C49.2183 56.4587 49.2449 56.24 49.2449 56.048C49.2449 55.7387 49.1703 55.4773 49.0209 55.264C48.8823 55.04 48.6583 54.928 48.3489 54.928H47.8689L47.1809 58.096H47.9169ZM46.7649 62.992C47.0849 62.992 47.3516 62.9013 47.5649 62.72C47.7783 62.5387 47.9543 62.3147 48.0929 62.048C48.2316 61.7813 48.3276 61.504 48.3809 61.216C48.4449 60.9173 48.4769 60.656 48.4769 60.432C48.4769 60.0587 48.3969 59.7653 48.2369 59.552C48.0876 59.328 47.8423 59.216 47.5009 59.216H46.9089L46.1249 62.992H46.7649ZM55.8701 64H52.4141L54.5741 53.84H58.0461L55.8701 64ZM59.7928 53.84H63.2648L61.3768 62.656H64.6248L64.3528 64H57.6328L59.7928 53.84ZM67.5116 53.84H70.9836L69.0956 62.656H72.3436L72.0716 64H65.3516L67.5116 53.84ZM76.5263 64H73.0703L75.2303 53.84H78.7023L76.5263 64ZM86.8171 64H83.0731L81.2971 56.656L79.7291 64H78.2891L80.4491 53.84H84.2731L85.9531 61.28L87.5371 53.84H89.0091L86.8171 64ZM94.2659 59.36H98.4099L97.4819 64H95.5939L95.2899 62.976H95.2259C94.9486 63.296 94.6179 63.568 94.2339 63.792C93.8606 64.016 93.3699 64.128 92.7619 64.128C92.2926 64.128 91.8393 64.0533 91.4019 63.904C90.9753 63.744 90.5913 63.4987 90.2499 63.168C89.9193 62.8267 89.6526 62.384 89.4499 61.84C89.2473 61.296 89.1459 60.64 89.1459 59.872C89.1459 59.04 89.2739 58.2507 89.5299 57.504C89.7859 56.7573 90.1699 56.1013 90.6819 55.536C91.1939 54.96 91.8339 54.5067 92.6019 54.176C93.3699 53.8453 94.2659 53.68 95.2899 53.68C96.0793 53.68 96.7673 53.7707 97.3539 53.952C97.9406 54.1333 98.4953 54.336 99.0179 54.56L98.4099 57.664H95.7059C95.7166 57.5467 95.7326 57.408 95.7539 57.248C95.7753 57.088 95.7913 56.9227 95.8019 56.752C95.8126 56.5707 95.8233 56.3947 95.8339 56.224C95.8446 56.0533 95.8499 55.904 95.8499 55.776C95.8499 55.6907 95.8446 55.5947 95.8339 55.488C95.8233 55.3707 95.7966 55.2587 95.7539 55.152C95.7113 55.0453 95.6473 54.96 95.5619 54.896C95.4766 54.8213 95.3539 54.784 95.1939 54.784C94.9166 54.784 94.6606 54.9013 94.4259 55.136C94.2019 55.36 93.9993 55.664 93.8179 56.048C93.6366 56.4213 93.4766 56.848 93.3379 57.328C93.2099 57.808 93.0979 58.2987 93.0019 58.8C92.9166 59.2907 92.8473 59.776 92.7939 60.256C92.7513 60.7253 92.7299 61.136 92.7299 61.488C92.7299 61.5947 92.7353 61.728 92.7459 61.888C92.7566 62.048 92.7886 62.208 92.8419 62.368C92.9059 62.5173 92.9913 62.6507 93.0979 62.768C93.2153 62.8747 93.3806 62.928 93.5939 62.928C93.9459 62.928 94.2873 62.736 94.6179 62.352C94.9486 61.968 95.1993 61.328 95.3699 60.432H94.0259L94.2659 59.36ZM107.05 59.616C107.37 59.616 107.637 59.4827 107.85 59.216C108.074 58.9493 108.255 58.624 108.394 58.24C108.543 57.856 108.65 57.456 108.714 57.04C108.778 56.624 108.81 56.2613 108.81 55.952C108.81 55.664 108.762 55.424 108.666 55.232C108.57 55.0293 108.362 54.928 108.042 54.928H107.322L106.314 59.616H107.05ZM106.09 60.64L105.37 64H101.914L104.074 53.84H107.77C108.378 53.84 108.933 53.872 109.434 53.936C109.935 54 110.367 54.128 110.73 54.32C111.093 54.512 111.375 54.7893 111.578 55.152C111.781 55.504 111.882 55.9787 111.882 56.576C111.882 57.1307 111.791 57.6587 111.61 58.16C111.439 58.6507 111.157 59.0827 110.762 59.456C110.378 59.8187 109.877 60.1067 109.258 60.32C108.639 60.5333 107.887 60.64 107.002 60.64H106.09ZM118.084 53.68C119.001 53.68 119.742 53.7973 120.308 54.032C120.884 54.2667 121.337 54.6293 121.668 55.12C121.881 55.4507 122.046 55.824 122.164 56.24C122.281 56.656 122.34 57.136 122.34 57.68C122.34 58.1493 122.297 58.6187 122.212 59.088C122.126 59.5573 122.004 60.0107 121.844 60.448C121.694 60.8747 121.508 61.28 121.284 61.664C121.07 62.0373 120.83 62.368 120.564 62.656C120.062 63.2 119.481 63.584 118.82 63.808C118.169 64.0213 117.364 64.128 116.404 64.128C115.476 64.128 114.729 64.032 114.164 63.84C113.598 63.648 113.15 63.3387 112.82 62.912C112.585 62.6133 112.398 62.2347 112.26 61.776C112.132 61.3173 112.068 60.7413 112.068 60.048C112.068 58.864 112.276 57.808 112.692 56.88C113.118 55.9413 113.721 55.2 114.5 54.656C114.969 54.3253 115.492 54.08 116.068 53.92C116.644 53.76 117.316 53.68 118.084 53.68ZM116.276 63.008C116.521 63.008 116.75 62.9013 116.964 62.688C117.188 62.464 117.39 62.1707 117.572 61.808C117.764 61.4347 117.934 61.0133 118.084 60.544C118.244 60.0747 118.377 59.5893 118.484 59.088C118.59 58.5867 118.67 58.0907 118.724 57.6C118.788 57.0987 118.82 56.6453 118.82 56.24C118.82 55.6853 118.761 55.3067 118.644 55.104C118.537 54.8907 118.377 54.784 118.164 54.784C117.918 54.784 117.684 54.8907 117.46 55.104C117.236 55.3173 117.022 55.6053 116.82 55.968C116.628 56.32 116.452 56.7307 116.292 57.2C116.142 57.6587 116.009 58.1333 115.892 58.624C115.785 59.1147 115.7 59.6 115.636 60.08C115.582 60.56 115.556 61.0027 115.556 61.408C115.556 62.016 115.62 62.4373 115.748 62.672C115.886 62.896 116.062 63.008 116.276 63.008ZM132.429 56.256C132.429 56.8853 132.253 57.4667 131.901 58C131.549 58.5333 130.968 58.9387 130.157 59.216L132.013 64H128.445L127.037 59.568H126.861L125.917 64H122.461L124.621 53.84H128.829C129.32 53.84 129.784 53.872 130.221 53.936C130.658 53.9893 131.037 54.1067 131.357 54.288C131.688 54.4587 131.949 54.704 132.141 55.024C132.333 55.3333 132.429 55.744 132.429 56.256ZM127.821 58.544C128.098 58.544 128.333 58.4533 128.525 58.272C128.728 58.08 128.888 57.8507 129.005 57.584C129.133 57.3173 129.224 57.0347 129.277 56.736C129.33 56.4267 129.357 56.16 129.357 55.936C129.357 55.6587 129.309 55.424 129.213 55.232C129.117 55.0293 128.909 54.928 128.589 54.928H127.869L127.069 58.544H127.821ZM141.814 55.056H139.238L137.334 64H133.878L135.782 55.056H133.238L133.526 53.84H142.086L141.814 55.056ZM149.059 64H145.315L145.091 61.456H142.131L140.995 64H139.443L144.163 53.84H147.955L149.059 64ZM142.659 60.288H144.979L144.611 55.936L142.659 60.288ZM151.98 53.84H155.452L153.564 62.656H156.812L156.54 64H149.82L151.98 53.84Z" fill="white"/>
<path d="M30.5594 39.704C30.1594 39.896 29.7434 40.088 29.3114 40.28C28.8954 40.456 28.4474 40.616 27.9674 40.76C27.4874 40.888 26.9594 40.992 26.3834 41.072C25.8234 41.152 25.2074 41.192 24.5354 41.192C22.3914 41.192 20.7354 40.712 19.5674 39.752C18.4154 38.792 17.8394 37.192 17.8394 34.952C17.8394 33.656 18.0394 32.44 18.4394 31.304C18.8394 30.152 19.4314 29.152 20.2154 28.304C20.9994 27.44 21.9674 26.76 23.1194 26.264C24.2714 25.768 25.5914 25.52 27.0794 25.52C27.7834 25.52 28.4234 25.568 28.9994 25.664C29.5914 25.76 30.1194 25.888 30.5834 26.048C31.0634 26.192 31.4874 26.352 31.8554 26.528C32.2394 26.704 32.5834 26.872 32.8874 27.032L32.0234 31.496H27.7034C27.7194 31.336 27.7354 31.128 27.7514 30.872C27.7834 30.616 27.8074 30.36 27.8234 30.104C27.8394 29.832 27.8554 29.568 27.8714 29.312C27.8874 29.056 27.8954 28.84 27.8954 28.664C27.8954 28.536 27.8874 28.392 27.8714 28.232C27.8554 28.056 27.8154 27.888 27.7514 27.728C27.6874 27.568 27.5834 27.44 27.4394 27.344C27.3114 27.232 27.1354 27.176 26.9114 27.176C26.4954 27.176 26.1114 27.352 25.7594 27.704C25.4234 28.04 25.1194 28.496 24.8474 29.072C24.5754 29.632 24.3354 30.272 24.1274 30.992C23.9194 31.712 23.7434 32.448 23.5994 33.2C23.4714 33.936 23.3674 34.664 23.2874 35.384C23.2234 36.104 23.1914 36.736 23.1914 37.28C23.1914 37.44 23.1994 37.64 23.2154 37.88C23.2314 38.12 23.2794 38.352 23.3594 38.576C23.4394 38.8 23.5594 38.992 23.7194 39.152C23.8954 39.312 24.1274 39.392 24.4154 39.392C24.9114 39.392 25.3914 39.088 25.8554 38.48C26.3194 37.856 26.7274 36.752 27.0794 35.168H31.5194L30.5594 39.704ZM38.3756 30.68L39.0956 37.736L42.8876 30.68H45.4316L39.6476 41C39.0716 42.008 38.4876 42.784 37.8956 43.328C37.3036 43.872 36.6556 44.272 35.9516 44.528C35.2636 44.784 34.4956 44.928 33.6476 44.96C32.8156 45.008 31.8636 45.032 30.7916 45.032L31.1516 43.376C31.6796 43.376 32.1676 43.368 32.6156 43.352C33.0796 43.336 33.4476 43.288 33.7196 43.208C34.0876 43.112 34.3516 42.936 34.5116 42.68C34.6716 42.44 34.7516 42.08 34.7516 41.6C34.7516 41.28 34.7196 40.912 34.6556 40.496C34.6076 40.08 34.5516 39.64 34.4876 39.176L33.3116 30.68H38.3756ZM50.678 35.048L56.27 30.68H59.438L54.662 34.592L58.238 41H52.862L50.414 36.176L49.406 41H44.51L47.918 24.872H52.838L50.678 35.048ZM63.6929 36.176C63.6289 36.528 63.5809 36.864 63.5489 37.184C63.5329 37.504 63.5249 37.792 63.5249 38.048C63.5249 38.192 63.5329 38.352 63.5489 38.528C63.5649 38.704 63.5969 38.872 63.6449 39.032C63.7089 39.176 63.7889 39.304 63.8849 39.416C63.9969 39.512 64.1489 39.56 64.3409 39.56C64.4849 39.56 64.6449 39.512 64.8209 39.416C65.0129 39.32 65.1969 39.184 65.3729 39.008C65.5649 38.832 65.7409 38.616 65.9009 38.36C66.0769 38.104 66.2129 37.816 66.3089 37.496H70.2449L69.6209 40.064C69.3009 40.272 68.9329 40.448 68.5169 40.592C68.1009 40.736 67.6609 40.856 67.1969 40.952C66.7329 41.032 66.2609 41.088 65.7809 41.12C65.3009 41.168 64.8449 41.192 64.4129 41.192C63.6129 41.192 62.8689 41.12 62.1809 40.976C61.4929 40.832 60.8929 40.584 60.3809 40.232C59.8689 39.88 59.4609 39.416 59.1569 38.84C58.8689 38.248 58.7249 37.52 58.7249 36.656C58.7249 35.872 58.8449 35.104 59.0849 34.352C59.3409 33.6 59.7569 32.936 60.3329 32.36C60.9249 31.768 61.7089 31.296 62.6849 30.944C63.6769 30.592 64.9089 30.416 66.3809 30.416C67.9809 30.416 69.1809 30.664 69.9809 31.16C70.7969 31.656 71.2049 32.432 71.2049 33.488C71.2049 33.92 71.1409 34.392 71.0129 34.904C70.8849 35.4 70.6929 35.824 70.4369 36.176H63.6929ZM66.8849 33.32C66.8849 32.824 66.8049 32.488 66.6449 32.312C66.4849 32.136 66.2929 32.048 66.0689 32.048C65.8129 32.048 65.5729 32.136 65.3489 32.312C65.1409 32.472 64.9489 32.696 64.7729 32.984C64.5969 33.256 64.4369 33.576 64.2929 33.944C64.1489 34.296 64.0289 34.672 63.9329 35.072H66.6689C66.7009 34.88 66.7329 34.68 66.7649 34.472C66.7969 34.296 66.8209 34.104 66.8369 33.896C66.8689 33.688 66.8849 33.496 66.8849 33.32ZM76.2419 41H71.3459L74.7539 24.872H79.6739L76.2419 41ZM85.0492 32.216C85.3852 31.896 85.7612 31.6 86.1772 31.328C86.5452 31.104 86.9772 30.896 87.4732 30.704C87.9692 30.512 88.5212 30.416 89.1292 30.416C89.9612 30.416 90.6492 30.632 91.1932 31.064C91.7372 31.48 92.0092 32.056 92.0092 32.792C92.0092 33 91.9852 33.256 91.9372 33.56C91.8892 33.848 91.8332 34.152 91.7692 34.472C91.7052 34.792 91.6332 35.12 91.5532 35.456C91.4892 35.776 91.4332 36.064 91.3852 36.32L90.3772 41H85.5052L86.8252 34.736C86.8572 34.528 86.8972 34.32 86.9452 34.112C86.9932 33.888 87.0172 33.688 87.0172 33.512C87.0172 33.272 86.9532 33.08 86.8252 32.936C86.7132 32.776 86.5372 32.696 86.2972 32.696C86.0092 32.696 85.7292 32.8 85.4572 33.008C85.2012 33.216 85.0012 33.392 84.8572 33.536L83.2732 41H78.3772L80.5612 30.68H84.4732L84.9052 32.216H85.0492ZM100.24 30.416C102.144 30.416 103.528 30.752 104.392 31.424C105.304 32.128 105.76 33.296 105.76 34.928C105.76 35.936 105.592 36.848 105.256 37.664C104.92 38.464 104.448 39.128 103.84 39.656C102.624 40.68 100.864 41.192 98.5597 41.192C96.5917 41.192 95.1837 40.816 94.3357 40.064C93.4237 39.28 92.9677 38.104 92.9677 36.536C92.9677 35.496 93.1757 34.552 93.5917 33.704C94.0237 32.856 94.6397 32.152 95.4397 31.592C96.6077 30.808 98.2077 30.416 100.24 30.416ZM98.6077 39.56C99.0077 39.56 99.3517 39.336 99.6397 38.888C99.9437 38.44 100.184 37.896 100.36 37.256C100.536 36.6 100.664 35.928 100.744 35.24C100.84 34.536 100.888 33.928 100.888 33.416C100.888 32.968 100.84 32.632 100.744 32.408C100.664 32.168 100.48 32.048 100.192 32.048C99.7597 32.048 99.3837 32.28 99.0637 32.744C98.7597 33.208 98.5117 33.76 98.3197 34.4C98.1277 35.04 97.9837 35.696 97.8877 36.368C97.8077 37.04 97.7677 37.584 97.7677 38C97.7677 39.04 98.0477 39.56 98.6077 39.56ZM112.916 32.216C113.252 31.896 113.628 31.6 114.044 31.328C114.412 31.104 114.852 30.896 115.364 30.704C115.876 30.512 116.452 30.416 117.092 30.416C117.86 30.416 118.428 30.592 118.796 30.944C119.18 31.296 119.396 31.728 119.444 32.24H119.588C119.956 31.904 120.356 31.6 120.788 31.328C121.156 31.104 121.588 30.896 122.084 30.704C122.58 30.512 123.108 30.416 123.668 30.416C124.5 30.416 125.172 30.648 125.684 31.112C126.212 31.56 126.476 32.144 126.476 32.864C126.476 33.232 126.412 33.72 126.284 34.328C126.156 34.936 126.012 35.6 125.852 36.32L124.844 41H120.116L121.412 34.736C121.46 34.496 121.508 34.264 121.556 34.04C121.604 33.816 121.628 33.632 121.628 33.488C121.628 33.264 121.564 33.08 121.436 32.936C121.308 32.776 121.124 32.696 120.884 32.696C120.58 32.696 120.292 32.808 120.02 33.032C119.764 33.24 119.564 33.416 119.42 33.56L117.86 41H113.372L114.692 34.736C114.724 34.528 114.764 34.32 114.812 34.112C114.86 33.888 114.884 33.688 114.884 33.512C114.884 33.272 114.82 33.08 114.692 32.936C114.58 32.776 114.404 32.696 114.164 32.696C113.876 32.696 113.596 32.8 113.324 33.008C113.068 33.216 112.868 33.392 112.724 33.536L111.14 41H106.244L108.428 30.68H112.34L112.772 32.216H112.916ZM128.884 31.568C129.7 31.168 130.532 30.88 131.38 30.704C132.244 30.512 133.204 30.416 134.26 30.416C135.284 30.416 136.132 30.496 136.804 30.656C137.476 30.816 138.012 31.048 138.412 31.352C138.812 31.656 139.092 32.016 139.252 32.432C139.412 32.848 139.492 33.32 139.492 33.848C139.492 34.152 139.468 34.48 139.42 34.832C139.388 35.184 139.348 35.48 139.3 35.72L138.172 41H134.308L133.876 39.464H133.732C133.22 40.024 132.62 40.456 131.932 40.76C131.26 41.048 130.588 41.192 129.916 41.192C129.532 41.192 129.156 41.136 128.788 41.024C128.42 40.912 128.092 40.744 127.804 40.52C127.516 40.28 127.284 39.984 127.108 39.632C126.932 39.264 126.844 38.824 126.844 38.312C126.844 37.48 127.068 36.824 127.516 36.344C127.98 35.848 128.58 35.48 129.316 35.24C130.068 34.984 130.908 34.824 131.836 34.76C132.78 34.696 133.724 34.664 134.668 34.664C134.7 34.504 134.74 34.28 134.788 33.992C134.836 33.688 134.86 33.424 134.86 33.2C134.86 32.912 134.78 32.648 134.62 32.408C134.476 32.152 134.164 32.024 133.684 32.024C133.124 32.024 132.708 32.192 132.436 32.528C132.18 32.848 132.012 33.24 131.932 33.704H128.428L128.884 31.568ZM134.404 35.792H133.972C133.508 35.792 133.108 35.856 132.772 35.984C132.452 36.096 132.188 36.248 131.98 36.44C131.788 36.632 131.644 36.848 131.548 37.088C131.452 37.328 131.404 37.568 131.404 37.808C131.404 38.192 131.5 38.48 131.692 38.672C131.9 38.864 132.14 38.96 132.412 38.96C132.748 38.96 133.076 38.84 133.396 38.6C133.732 38.36 133.94 38.04 134.02 37.64L134.404 35.792ZM150.382 24.872H155.302L151.87 41H147.982L147.55 39.464H147.382C147.286 39.608 147.134 39.784 146.926 39.992C146.734 40.184 146.486 40.376 146.182 40.568C145.878 40.744 145.518 40.888 145.102 41C144.686 41.128 144.206 41.192 143.662 41.192C143.102 41.192 142.622 41.112 142.222 40.952C141.838 40.776 141.518 40.544 141.262 40.256C141.022 39.968 140.846 39.624 140.734 39.224C140.622 38.808 140.566 38.36 140.566 37.88C140.566 37.672 140.582 37.344 140.614 36.896C140.646 36.432 140.718 35.928 140.83 35.384C140.958 34.824 141.134 34.256 141.358 33.68C141.598 33.088 141.91 32.552 142.294 32.072C142.694 31.592 143.182 31.2 143.758 30.896C144.334 30.576 145.03 30.416 145.846 30.416C146.102 30.416 146.374 30.44 146.662 30.488C146.95 30.536 147.222 30.624 147.478 30.752C147.75 30.88 147.99 31.064 148.198 31.304C148.406 31.544 148.558 31.856 148.654 32.24H148.822L150.382 24.872ZM147.454 32.768C147.07 32.768 146.75 32.984 146.494 33.416C146.238 33.832 146.03 34.32 145.87 34.88C145.71 35.44 145.59 36 145.51 36.56C145.446 37.12 145.414 37.536 145.414 37.808C145.414 38.128 145.462 38.4 145.558 38.624C145.654 38.832 145.838 38.936 146.11 38.936C146.27 38.936 146.422 38.904 146.566 38.84C146.726 38.76 146.87 38.672 146.998 38.576C147.142 38.464 147.262 38.352 147.358 38.24C147.454 38.128 147.534 38.032 147.598 37.952L148.534 33.584C148.422 33.408 148.27 33.232 148.078 33.056C147.902 32.864 147.694 32.768 147.454 32.768ZM159.482 36.176C159.418 36.528 159.37 36.864 159.338 37.184C159.322 37.504 159.314 37.792 159.314 38.048C159.314 38.192 159.322 38.352 159.338 38.528C159.354 38.704 159.386 38.872 159.434 39.032C159.498 39.176 159.578 39.304 159.674 39.416C159.786 39.512 159.938 39.56 160.13 39.56C160.274 39.56 160.434 39.512 160.61 39.416C160.802 39.32 160.986 39.184 161.162 39.008C161.354 38.832 161.53 38.616 161.69 38.36C161.866 38.104 162.002 37.816 162.098 37.496H166.034L165.41 40.064C165.09 40.272 164.722 40.448 164.306 40.592C163.89 40.736 163.45 40.856 162.986 40.952C162.522 41.032 162.05 41.088 161.57 41.12C161.09 41.168 160.634 41.192 160.202 41.192C159.402 41.192 158.658 41.12 157.97 40.976C157.282 40.832 156.682 40.584 156.17 40.232C155.658 39.88 155.25 39.416 154.946 38.84C154.658 38.248 154.514 37.52 154.514 36.656C154.514 35.872 154.634 35.104 154.874 34.352C155.13 33.6 155.546 32.936 156.122 32.36C156.714 31.768 157.498 31.296 158.474 30.944C159.466 30.592 160.698 30.416 162.17 30.416C163.77 30.416 164.97 30.664 165.77 31.16C166.586 31.656 166.994 32.432 166.994 33.488C166.994 33.92 166.93 34.392 166.802 34.904C166.674 35.4 166.482 35.824 166.226 36.176H159.482ZM162.674 33.32C162.674 32.824 162.594 32.488 162.434 32.312C162.274 32.136 162.082 32.048 161.858 32.048C161.602 32.048 161.362 32.136 161.138 32.312C160.93 32.472 160.738 32.696 160.562 32.984C160.386 33.256 160.226 33.576 160.082 33.944C159.938 34.296 159.818 34.672 159.722 35.072H162.458C162.49 34.88 162.522 34.68 162.554 34.472C162.586 34.296 162.61 34.104 162.626 33.896C162.658 33.688 162.674 33.496 162.674 33.32ZM169.319 30.68H173.231L173.591 32.48H173.759C174.127 31.904 174.599 31.416 175.175 31.016C175.751 30.616 176.511 30.416 177.455 30.416C177.519 30.416 177.615 30.424 177.743 30.44C177.887 30.44 178.039 30.464 178.199 30.512C178.375 30.544 178.551 30.6 178.727 30.68C178.919 30.744 179.103 30.84 179.279 30.968L178.223 35.912H175.607C175.575 34.92 175.487 34.232 175.343 33.848C175.199 33.448 174.967 33.248 174.647 33.248C174.487 33.248 174.311 33.288 174.119 33.368C173.943 33.432 173.759 33.584 173.567 33.824L172.031 41H167.135L169.319 30.68Z" fill="white"/>
<path d="M26 24.3333L18.3913 30L12 23.3333L18.3913 24.3333V20.3333L22.6522 21.3333L24.1739 16L26 24.3333Z" fill="white"/>
</svg>
