<svg width="24" height="22" viewBox="0 0 24 22" fill="none" xmlns="http://www.w3.org/2000/svg">
<path d="M5.88889 12.0355H13.2222M5.88889 7.5533H8.33333M5.88889 16.5178H13.2222M16.8889 21H19.9444M18.1111 21H6.86667C4.81314 21 3.78637 21 3.00204 20.6336C2.3121 20.3113 1.75118 19.7971 1.39964 19.1645C1 18.4454 1 17.5041 1 15.6213V3.91943C1 2.90489 1 2.39761 1.23247 2.10344C1.43525 1.84684 1.74706 1.68094 2.09067 1.64683C2.4846 1.60773 2.96499 1.85941 3.92578 2.36276L4.30755 2.56277C4.66119 2.74805 4.83801 2.84068 5.02579 2.87695C5.19195 2.90905 5.3636 2.90905 5.52976 2.87695C5.71755 2.84068 5.89436 2.74805 6.248 2.56277L8.58533 1.33826C8.93897 1.15299 9.11579 1.06035 9.30357 1.02408C9.46973 0.991974 9.64135 0.991974 9.80758 1.02408C9.99531 1.06035 10.1722 1.15299 10.5258 1.33826L12.8631 2.56277C13.2167 2.74805 13.3936 2.84068 13.5813 2.87695C13.7475 2.90905 13.9191 2.90905 14.0854 2.87695C14.2731 2.84068 14.4499 2.74805 14.8035 2.56277L15.1854 2.36276C16.1461 1.85941 16.6265 1.60773 17.0204 1.64683C17.3641 1.68094 17.6759 1.84684 17.8786 2.10344C18.1111 2.39761 18.1111 2.90489 18.1111 3.91943V13.1561M18.1111 12.0355H23V18.7589C23 19.9967 21.9056 21 20.5556 21C19.2055 21 18.1111 19.9967 18.1111 18.7589V12.0355Z" stroke="#EFE947" stroke-width="2" stroke-linecap="round" stroke-linejoin="round"/>
</svg>
