<svg width="30" height="28" viewBox="0 0 30 28" fill="none" xmlns="http://www.w3.org/2000/svg">
<path d="M26.25 5.83333L23.75 14H9.22089M25 18.6667H10L7.5 3.5H3.75M20 6.41667H16.875M16.875 6.41667H13.75M16.875 6.41667V9.33333M16.875 6.41667V3.5M11.25 23.3333C11.25 23.9777 10.6904 24.5 10 24.5C9.30965 24.5 8.75 23.9777 8.75 23.3333C8.75 22.689 9.30965 22.1667 10 22.1667C10.6904 22.1667 11.25 22.689 11.25 23.3333ZM25 23.3333C25 23.9777 24.4404 24.5 23.75 24.5C23.0596 24.5 22.5 23.9777 22.5 23.3333C22.5 22.689 23.0596 22.1667 23.75 22.1667C24.4404 22.1667 25 22.689 25 23.3333Z" stroke="#EFE947" stroke-width="2" stroke-linecap="round" stroke-linejoin="round"/>
</svg>
