<svg width="22" height="25" viewBox="0 0 22 25" fill="none" xmlns="http://www.w3.org/2000/svg">
<path d="M21.2987 11.4062H19.7037V21.3281H2.29615V5.125H10.9999V3.125H2.29615C2.07399 3.13292 1.85548 3.19134 1.65352 3.29682C1.45156 3.4023 1.27025 3.5527 1.12029 3.73913C0.970328 3.92556 0.854761 4.14425 0.780411 4.38228C0.706061 4.62031 0.674437 4.87285 0.687404 5.125V21.3281C0.680061 21.5764 0.71586 21.824 0.792754 22.0565C0.869649 22.2891 0.98613 22.5022 1.13554 22.6836C1.28495 22.865 1.46436 23.0111 1.6635 23.1137C1.86265 23.2162 2.07763 23.2732 2.29615 23.2812H19.7037C19.9222 23.2732 20.1372 23.2162 20.3363 23.1137C20.5355 23.0111 20.7149 22.865 20.8643 22.6836C21.0137 22.5022 21.1302 22.2891 21.2071 22.0565C21.2839 21.824 21.3197 21.5764 21.3124 21.3281L21.2987 11.4062Z" fill="#EFE947"/>
<path d="M14.5201 4.48438L8.55255 11.2813L7.94755 11.9688L7.83755 12.0938L5.74755 17.0313C5.60733 17.3482 5.5586 17.7074 5.60828 18.0577C5.65796 18.4079 5.80353 18.7315 6.0243 18.9824C6.24507 19.2333 6.52981 19.3987 6.83805 19.4551C7.14629 19.5116 7.46235 19.4562 7.7413 19.2969L12.0588 16.9063L12.7876 16.0781L13.3788 15.4063L19.3463 8.59375L19.9651 7.90625L20.3088 7.51563C20.8697 6.87702 21.1847 6.01163 21.1847 5.10938C21.1847 4.20713 20.8697 3.34173 20.3088 2.70313C19.7495 2.07215 18.9932 1.71827 18.2051 1.71875C17.4127 1.71754 16.6519 2.07122 16.0876 2.70313L15.1251 3.78125L14.5063 4.46875L14.5201 4.48438ZM7.5763 17.1875L9.1988 13.3906L10.9176 15.3594L7.5763 17.1875ZM10.3263 11.9375L15.6888 5.82813L17.4763 7.875L12.1688 14.0625L10.3263 11.9375ZM18.1363 3.64063C18.3025 3.63999 18.4671 3.67696 18.6205 3.7494C18.774 3.82183 18.9132 3.92827 19.0301 4.0625C19.2677 4.33468 19.401 4.70254 19.401 5.08594C19.401 5.46934 19.2677 5.8372 19.0301 6.10938L18.6863 6.48438L16.8988 4.45313L17.2426 4.0625C17.3666 3.92364 17.5156 3.81685 17.6794 3.74944C17.8431 3.68202 18.0177 3.65557 18.1913 3.67188L18.1363 3.64063Z" fill="#EFE947"/>
</svg>
